<svg width="185" height="24" viewBox="0 0 185 24" fill="none" xmlns="http://www.w3.org/2000/svg">
<g clip-path="url(#clip0_5966_11830)">
<path d="M5.43303 19.329H3.79125C2.77939 19.329 1.9585 18.5081 1.9585 17.4963V15.6521" stroke="#99A2AB" stroke-width="1.25" stroke-miterlimit="10" stroke-linecap="round" stroke-linejoin="round"/>
<path d="M22.8085 15.8545V17.4963C22.8085 18.5081 21.9876 19.329 20.9758 19.329H19.334" stroke="#99A2AB" stroke-width="1.25" stroke-miterlimit="10" stroke-linecap="round" stroke-linejoin="round"/>
<path d="M19.2827 5.43091H20.973C21.9848 5.43091 22.8057 6.2518 22.8057 7.26366V8.90544" stroke="#99A2AB" stroke-width="1.25" stroke-miterlimit="10" stroke-linecap="round" stroke-linejoin="round"/>
<path d="M1.9585 8.90544V7.26366C1.9585 6.2518 2.77939 5.43091 3.79125 5.43091H5.44443" stroke="#99A2AB" stroke-width="1.25" stroke-miterlimit="10" stroke-linecap="round" stroke-linejoin="round"/>
<path d="M5.43311 8.9054V15.8545" stroke="#99A2AB" stroke-width="1.25" stroke-miterlimit="10" stroke-linecap="round" stroke-linejoin="round"/>
<path d="M19.3311 8.9054V15.8545" stroke="#99A2AB" stroke-width="1.25" stroke-miterlimit="10" stroke-linecap="round" stroke-linejoin="round"/>
<path d="M17.0166 8.9054V14.1186" stroke="#99A2AB" stroke-width="1.25" stroke-miterlimit="10" stroke-linecap="round" stroke-linejoin="round"/>
<path d="M12.3823 8.9054V14.1186" stroke="#99A2AB" stroke-width="1.25" stroke-miterlimit="10" stroke-linecap="round" stroke-linejoin="round"/>
<path d="M7.75049 8.9054V14.1186" stroke="#99A2AB" stroke-width="1.25" stroke-miterlimit="10" stroke-linecap="round" stroke-linejoin="round"/>
<path d="M14.6992 8.9054V14.1186" stroke="#99A2AB" stroke-width="1.25" stroke-miterlimit="10" stroke-linecap="round" stroke-linejoin="round"/>
<path d="M10.0679 8.9054V14.1186" stroke="#99A2AB" stroke-width="1.25" stroke-miterlimit="10" stroke-linecap="round" stroke-linejoin="round"/>
<path fill-rule="evenodd" clip-rule="evenodd" d="M7.02295 15.8546C7.02295 15.4527 7.34871 15.127 7.75056 15.127C8.15241 15.127 8.47817 15.4527 8.47817 15.8546C8.47817 16.2564 8.15241 16.5822 7.75056 16.5822C7.34871 16.5822 7.02295 16.2564 7.02295 15.8546Z" fill="#99A2AB"/>
<path fill-rule="evenodd" clip-rule="evenodd" d="M9.33984 15.8546C9.33984 15.4527 9.66561 15.127 10.0675 15.127C10.4693 15.127 10.7951 15.4527 10.7951 15.8546C10.7951 16.2564 10.4693 16.5822 10.0675 16.5822C9.66561 16.5822 9.33984 16.2564 9.33984 15.8546Z" fill="#99A2AB"/>
<path fill-rule="evenodd" clip-rule="evenodd" d="M11.6543 15.8546C11.6543 15.4527 11.9801 15.127 12.3819 15.127C12.7838 15.127 13.1095 15.4527 13.1095 15.8546C13.1095 16.2564 12.7838 16.5822 12.3819 16.5822C11.9801 16.5822 11.6543 16.2564 11.6543 15.8546Z" fill="#99A2AB"/>
<path fill-rule="evenodd" clip-rule="evenodd" d="M13.9717 15.8546C13.9717 15.4527 14.2974 15.127 14.6993 15.127C15.1011 15.127 15.4269 15.4527 15.4269 15.8546C15.4269 16.2564 15.1011 16.5822 14.6993 16.5822C14.2974 16.5822 13.9717 16.2564 13.9717 15.8546Z" fill="#99A2AB"/>
<path fill-rule="evenodd" clip-rule="evenodd" d="M16.2891 15.8546C16.2891 15.4527 16.6148 15.127 17.0167 15.127C17.4185 15.127 17.7443 15.4527 17.7443 15.8546C17.7443 16.2564 17.4185 16.5822 17.0167 16.5822C16.6148 16.5822 16.2891 16.2564 16.2891 15.8546Z" fill="#99A2AB"/>
<rect x="32.8984" y="2.5" width="23" height="19" rx="1.55714" fill="white" stroke="#EDEEF0"/>
<path d="M42.2939 8.16895H46.5828V15.8625H42.2939V8.16895Z" fill="#FF5F00"/>
<path d="M42.5525 12.0157C42.5525 10.4526 43.2878 9.06609 44.4178 8.16896C43.5873 7.51651 42.5389 7.12231 41.3952 7.12231C38.6857 7.12231 36.4937 9.31076 36.4937 12.0157C36.4937 14.7207 38.6857 16.9091 41.3952 16.9091C42.5389 16.9091 43.5873 16.5149 44.4178 15.8625C43.2878 14.979 42.5525 13.5789 42.5525 12.0157Z" fill="#EB001B"/>
<path d="M52.3558 12.0157C52.3558 14.7207 50.1637 16.9091 47.4543 16.9091C46.3106 16.9091 45.2622 16.5149 44.4316 15.8625C45.5753 14.9654 46.297 13.5789 46.297 12.0157C46.297 10.4526 45.5617 9.06609 44.4316 8.16896C45.2622 7.51651 46.3106 7.12231 47.4543 7.12231C50.1637 7.12231 52.3558 9.32435 52.3558 12.0157Z" fill="#F79E1B"/>
<rect x="64.8984" y="2.5" width="23" height="19" rx="2.5" fill="white" stroke="#EDEEF0"/>
<path fill-rule="evenodd" clip-rule="evenodd" d="M75.3778 17H77.1996C80.0434 17 82.3096 14.7827 82.3984 12.0438V12.0003C82.354 9.21787 80.0434 6.95714 77.1996 7.00062H75.1556C72.4451 7.08757 70.3122 9.3483 70.4011 12.0438C70.4011 14.7393 72.6228 16.9565 75.3778 17ZM71.2898 12.0003C71.2898 9.73958 73.2005 7.87013 75.5111 7.87013C77.8217 7.87013 79.7324 9.73958 79.7324 12.0003C79.7324 14.261 77.8217 16.1305 75.5111 16.1305C73.2005 16.1305 71.2898 14.261 71.2898 12.0003ZM76.1776 14.7827V9.26135C77.7328 9.65263 78.7104 11.1743 78.3105 12.6959C78.0439 13.7393 77.244 14.5219 76.1776 14.7827ZM72.7561 11.3047C72.3562 12.8263 73.2894 14.3915 74.8446 14.7827V9.26135C73.8226 9.5222 73.0228 10.3048 72.7561 11.3047Z" fill="#1A1F71"/>
<rect x="96.3984" y="2" width="24" height="20" rx="3" fill="#3498D8"/>
<path fill-rule="evenodd" clip-rule="evenodd" d="M101.31 12.2571H102.536L101.923 10.5429L101.31 12.2571ZM118.398 9H115.257L114.49 9.94286L113.801 9H107.134L106.521 10.5429L105.908 9H103.226V9.68571L102.92 9H100.621L98.3984 15H101.08L101.387 14.0571H102.153L102.46 15H105.448V14.3143L105.678 15H107.211L107.441 14.2286V15H113.571L114.337 14.0571L115.027 15H118.169L116.176 12L118.398 9ZM109.126 14.1429H108.283V10.8L106.981 14.1429H106.215L104.912 10.8V14.1429H103.149L102.843 13.2H101.004L100.697 14.1429H99.7011L101.31 9.85714H102.613L104.069 13.8857V9.85714H105.525L106.674 12.7714L107.747 9.85714H109.203V14.1429H109.126ZM116.713 14.1429H115.563L114.567 12.6857L113.418 14.1429H109.969V9.85714H113.494L114.567 11.2286L115.716 9.85714H116.789L115.103 12L116.713 14.1429ZM110.812 10.7143V11.4857H112.728V12.3429H110.812V13.2H112.958L113.954 11.9143L113.034 10.7143H110.812Z" fill="white"/>
<rect x="128.398" width="24" height="24" fill="#50E3C2" fill-opacity="0.01"/>
<rect x="128.398" y="2" width="24" height="20" rx="3" fill="#1A1F71"/>
<path fill-rule="evenodd" clip-rule="evenodd" d="M135.149 14.9533H133.504L132.271 10.2986C132.213 10.0845 132.088 9.89524 131.906 9.80603C131.449 9.58183 130.947 9.4034 130.398 9.31341V9.13421H133.047C133.413 9.13421 133.687 9.4034 133.733 9.71604L134.373 13.0736L136.016 9.13421H137.615L135.149 14.9533ZM138.529 14.9533H136.976L138.255 9.13421H139.807L138.529 14.9533ZM141.817 10.7463C141.862 10.4329 142.136 10.2536 142.456 10.2536C142.959 10.2087 143.507 10.2986 143.964 10.5221L144.238 9.26919C143.781 9.08999 143.278 9 142.822 9C141.315 9 140.218 9.80603 140.218 10.9247C140.218 11.7757 140.995 12.2226 141.543 12.4917C142.136 12.7602 142.365 12.9394 142.319 13.2078C142.319 13.6104 141.862 13.7896 141.406 13.7896C140.858 13.7896 140.309 13.6554 139.807 13.4312L139.533 14.6849C140.082 14.9083 140.675 14.9983 141.223 14.9983C142.913 15.0425 143.964 14.2372 143.964 13.0286C143.964 11.5065 141.817 11.4173 141.817 10.7463ZM149.398 14.9533L148.165 9.13421H146.841C146.567 9.13421 146.293 9.31341 146.201 9.58183L143.918 14.9533H145.517L145.836 14.103H147.8L147.983 14.9533H149.398ZM147.069 10.7013L147.526 12.8944H146.247L147.069 10.7013Z" fill="white"/>
<rect x="160.398" y="2" width="24" height="20" rx="3" fill="#0F0F12"/>
<path fill-rule="evenodd" clip-rule="evenodd" d="M171.413 8L171.421 14.2391C171.422 14.8314 171.584 15.1114 172.046 15.3047L173.263 15.8144L173.732 14.6098L172.692 14.2099C172.615 14.1802 172.608 14.1289 172.608 14.0706V8H171.413ZM169.165 11.4478L165.833 12.868C165.828 12.8113 165.825 12.7538 165.825 12.6957C165.825 11.6532 166.68 10.8081 167.733 10.8081C168.303 10.8081 168.815 11.0556 169.165 11.4478ZM167.733 9.39644C169.305 9.39644 170.623 10.4725 170.975 11.9207L169.631 12.5022L169.631 12.4994L168.256 13.0971L164.957 14.524C164.604 14.0006 164.398 13.372 164.398 12.6957C164.398 10.8735 165.891 9.39644 167.733 9.39644ZM170.064 15.0558C168.87 16.177 167.29 16.287 165.902 15.4533L166.686 14.2738C167.476 14.7408 168.269 14.6651 169.066 14.0459L170.064 15.0558Z" fill="#FFFFFE"/>
<path fill-rule="evenodd" clip-rule="evenodd" d="M175.732 14.0833C175.323 13.7393 175.059 13.2025 175.059 12.5987C175.059 12.0619 175.268 11.578 175.601 11.2355L174.896 10C174.187 10.6071 173.732 11.5451 173.732 12.5987C173.732 13.7342 174.26 14.736 175.066 15.3333L175.732 14.0833Z" fill="#2191C3"/>
<path fill-rule="evenodd" clip-rule="evenodd" d="M176.369 10.8871C176.577 10.8153 176.8 10.7759 177.034 10.7759C177.875 10.7759 178.592 11.2849 178.872 12L180.399 11.8773C180.03 10.4175 178.664 9.33337 177.034 9.33337C176.573 9.33337 176.134 9.42067 175.732 9.57777L176.369 10.8871Z" fill="#FAEC32"/>
<path fill-rule="evenodd" clip-rule="evenodd" d="M178.858 12.6666C178.807 13.6966 177.923 14.5165 176.84 14.5165C176.67 14.5165 176.505 14.4961 176.348 14.4582L175.732 15.8301C176.081 15.9398 176.453 16 176.84 16C178.758 16 180.322 14.5408 180.399 12.7133L178.858 12.6666Z" fill="#D0362B"/>
</g>
<defs>
<clipPath id="clip0_5966_11830">
<rect width="184" height="24" fill="white" transform="translate(0.398438)"/>
</clipPath>
</defs>
</svg>
