<svg width="81" height="27" viewBox="0 0 81 27" fill="none" xmlns="http://www.w3.org/2000/svg">
<g clip-path="url(#clip0_5951_11934)">
<path fill-rule="evenodd" clip-rule="evenodd" d="M6.75489 0H73.8216C74.0612 0 74.3047 0 74.5443 0.00135C74.7101 0.00242443 74.8794 0.00525742 75.0465 0.0080537C75.0841 0.00868307 75.1216 0.00931057 75.1589 0.00991575C75.6057 0.014943 76.0515 0.0548321 76.4922 0.129229C76.9347 0.20545 77.3635 0.348096 77.7644 0.552454C78.5662 0.969405 79.2187 1.63035 79.6302 2.44232C79.8313 2.8469 79.9705 3.2801 80.043 3.72706C80.1173 4.17377 80.1587 4.62547 80.1667 5.07841C80.1693 5.28539 80.1693 5.49304 80.1693 5.70002C80.1745 5.94421 80.1745 6.18907 80.1745 6.43589V6.43698V20.5638V20.5649C80.1745 20.8138 80.1745 21.0573 80.1693 21.3021C80.1693 21.5117 80.1693 21.7148 80.1667 21.9244C80.1587 22.3773 80.1173 22.829 80.043 23.2757C79.9707 23.7229 79.8315 24.1564 79.6302 24.5611C79.4257 24.9639 79.1599 25.3316 78.8425 25.6508C78.5274 25.9726 78.1634 26.2413 77.7644 26.4464C77.3635 26.6513 76.9347 26.7948 76.4922 26.8722C76.0514 26.946 75.6057 26.9859 75.1589 26.9915C74.9558 26.9961 74.7474 26.9987 74.5443 26.9987C74.305 27.0001 74.0619 27.0001 73.8226 27.0001H73.8216H6.75489H6.75386C6.50976 27.0001 6.26854 27.0001 6.02507 26.9987C5.82097 26.9987 5.6185 26.9961 5.41244 26.9915C4.96481 26.9855 4.51825 26.9457 4.0765 26.8722C3.6354 26.7953 3.20822 26.6518 2.80925 26.4464C2.40981 26.2414 2.04547 25.9727 1.73015 25.6508C1.41192 25.3329 1.14665 24.9649 0.944671 24.5611C0.741843 24.1567 0.601328 23.7232 0.528004 23.2757C0.45378 22.8291 0.413838 22.3773 0.408538 21.9244C0.404311 21.7812 0.402667 21.641 0.40101 21.4998C0.400241 21.4343 0.39947 21.3685 0.398438 21.3021V5.70002C0.399483 5.63367 0.40026 5.56725 0.401037 5.50081C0.402685 5.35998 0.404334 5.21905 0.408538 5.07844C0.413836 4.62554 0.453778 4.17374 0.528004 3.72709C0.601531 3.27987 0.742038 2.84664 0.944671 2.44235C1.14675 2.03725 1.41197 1.66777 1.73015 1.34811C2.04667 1.02755 2.41077 0.759106 2.80925 0.552514C3.20822 0.347656 3.63545 0.204972 4.0765 0.12929C4.51818 0.0552192 4.96478 0.015344 5.41244 0.0100102C5.45522 0.009325 5.49784 0.00861298 5.54036 0.00790277C5.70264 0.005192 5.86334 0.00250748 6.02507 0.00143775C6.26889 0 6.51042 0 6.75489 0ZM5.42549 26.4022C5.62702 26.4067 5.82523 26.4094 6.02835 26.4094L73.8216 26.4107L74.5443 26.4094C74.7428 26.4094 74.9473 26.4067 75.1426 26.4022C75.5601 26.397 75.9766 26.3602 76.3887 26.2921C76.7757 26.2256 77.1506 26.1005 77.5007 25.9209C77.8463 25.7431 78.1613 25.5101 78.4336 25.2308C78.7065 24.957 78.935 24.6413 79.1107 24.2954C79.2871 23.9406 79.4085 23.5604 79.4707 23.1682C79.5388 22.7545 79.5769 22.3363 79.5846 21.917C79.5872 21.7101 79.5872 21.509 79.5872 21.2895C79.5925 21.0483 79.5925 20.809 79.5925 20.5637V6.43689C79.5925 6.19398 79.5925 5.95306 79.5872 5.69993C79.5872 5.49558 79.5872 5.29025 79.5853 5.09909C79.5774 4.67218 79.5386 4.24642 79.4694 3.82522C79.4066 3.43812 79.2863 3.06287 79.1126 2.7122C78.7575 2.01094 78.1945 1.43977 77.5026 1.07875C77.1515 0.900193 76.7761 0.77556 76.3887 0.708948C75.979 0.640881 75.5649 0.604194 75.1498 0.5992L74.541 0.590627H6.02868L5.42713 0.598869C5.0082 0.604124 4.59025 0.641141 4.17679 0.709609C3.79329 0.775396 3.42174 0.899165 3.07458 1.07677C2.72922 1.25591 2.41375 1.4888 2.13968 1.76694C1.86531 2.04246 1.63677 2.36111 1.46292 2.71055C1.28642 3.06366 1.16424 3.442 1.10062 3.83247C1.03224 4.25024 0.995346 4.67268 0.990262 5.09612C0.986362 5.23323 0.980469 5.69993 0.980469 5.69993V21.2928C0.980469 21.2928 0.986002 21.7668 0.990229 21.9092C0.995538 22.3333 1.03264 22.7564 1.10123 23.1748C1.16474 23.5642 1.28682 23.9414 1.46323 24.2934C1.63771 24.6431 1.86753 24.9615 2.14357 25.236C2.41567 25.5138 2.73013 25.7455 3.0749 25.9222C3.42286 26.1004 3.79512 26.2251 4.1794 26.2921C4.59151 26.3598 5.00801 26.3966 5.42549 26.4022Z" fill="#667381"/>
<path fill-rule="evenodd" clip-rule="evenodd" d="M13.4533 13.3314L15.4008 11.3596L7.02173 6.53872C6.85393 6.44228 6.71016 6.39494 6.58909 6.38135L13.4533 13.3314ZM16.0585 11.7376L13.9246 13.8981L16.0581 16.0583L18.7905 14.4863C19.1514 14.2787 19.2542 14.0527 19.2542 13.8978C19.2542 13.7429 19.1514 13.5168 18.7905 13.3089L16.0585 11.7376ZM12.982 13.8981L6.01597 6.84502C5.9973 6.92939 5.98633 7.02768 5.98633 7.14127V20.655C5.98633 20.7686 5.9973 20.8669 6.01596 20.9513L12.982 13.8981ZM6.58912 21.4149C6.71016 21.4013 6.85385 21.354 7.02163 21.2576L15.4002 16.4371L13.4535 14.4647L6.58912 21.4149Z" fill="#667381"/>
<path fill-rule="evenodd" clip-rule="evenodd" d="M64.2172 20.0134H65.3442V12.3686H64.2172V20.0134ZM74.3684 15.1223L73.0765 18.4369H73.0378L71.697 15.1223H70.483L72.4937 19.7547L71.3473 22.3318H72.5232L75.6217 15.1223H74.3684ZM67.977 19.145C67.6074 19.145 67.0928 18.9585 67.0928 18.4962C67.0928 17.9061 67.7342 17.6798 68.2875 17.6798C68.7834 17.6798 69.0159 17.788 69.3173 17.9354C69.2297 18.6436 68.6275 19.145 67.977 19.145ZM68.1129 14.9554C67.2969 14.9554 66.452 15.3193 66.1022 16.1259L67.1024 16.5484C67.3163 16.1259 67.7143 15.9877 68.1322 15.9877C68.7151 15.9877 69.3076 16.3417 69.3173 16.9716V17.0499C69.1131 16.9319 68.6764 16.7551 68.1419 16.7551C67.0638 16.7551 65.9657 17.3551 65.9657 18.476C65.9657 19.4991 66.85 20.1584 67.8405 20.1584C68.5985 20.1584 69.0159 19.8141 69.2786 19.4104H69.3173V20.0006H70.4051V17.0701C70.4051 15.7125 69.4049 14.9554 68.1129 14.9554ZM61.1477 16.0531H59.5447V13.4327H61.1477C61.9903 13.4327 62.4687 14.139 62.4687 14.7426C62.4687 15.3352 61.9903 16.0531 61.1477 16.0531ZM61.1187 12.3686H58.4183V20.0134H59.5447V17.1172H61.1187C62.3678 17.1172 63.5957 16.2011 63.5957 14.7426C63.5957 13.2841 62.3678 12.3686 61.1187 12.3686ZM46.3929 19.1463C45.6143 19.1463 44.9626 18.4864 44.9626 17.5801C44.9626 16.664 45.6143 15.9938 46.3929 15.9938C47.1618 15.9938 47.7645 16.664 47.7645 17.5801C47.7645 18.4864 47.1618 19.1463 46.3929 19.1463ZM47.6866 15.5504H47.648C47.3949 15.2453 46.9087 14.9695 46.2956 14.9695C45.011 14.9695 43.8338 16.1118 43.8338 17.5801C43.8338 19.038 45.011 20.1712 46.2956 20.1712C46.9087 20.1712 47.3949 19.8954 47.648 19.5798H47.6866V19.9541C47.6866 20.9497 47.1618 21.4817 46.315 21.4817C45.624 21.4817 45.1958 20.979 45.0206 20.5552L44.0379 20.9693C44.32 21.6591 45.0695 22.5061 46.315 22.5061C47.6383 22.5061 48.7575 21.7178 48.7575 19.7969V15.1266H47.6866V15.5504ZM49.536 20.0134H50.6649V12.368H49.536V20.0134ZM52.3283 17.4914C52.2993 16.4867 53.0972 15.9742 53.6709 15.9742C54.1191 15.9742 54.4984 16.2005 54.6246 16.5258L52.3283 17.4914ZM55.8314 16.6243C55.6176 16.0433 54.9653 14.9695 53.6323 14.9695C52.309 14.9695 51.2097 16.0231 51.2097 17.5703C51.2097 19.0282 52.2993 20.1712 53.7585 20.1712C54.9363 20.1712 55.6176 19.4422 55.8997 19.0184L55.0239 18.4271C54.7322 18.8607 54.3329 19.1463 53.7585 19.1463C53.1847 19.1463 52.7758 18.8802 52.5131 18.3586L55.948 16.9203L55.8314 16.6243ZM28.4659 15.7675V16.8707H31.0733C30.9954 17.4914 30.7913 17.9446 30.4802 18.2601C30.1003 18.6442 29.5066 19.0674 28.4659 19.0674C26.8605 19.0674 25.6048 17.7575 25.6048 16.132C25.6048 14.5059 26.8605 13.196 28.4659 13.196C29.332 13.196 29.9644 13.5409 30.4313 13.9843L31.2002 13.2058C30.5478 12.5753 29.6823 12.0922 28.4659 12.0922C26.2668 12.0922 24.418 13.9054 24.418 16.132C24.418 18.3586 26.2668 20.1712 28.4659 20.1712C29.6527 20.1712 30.5478 19.7774 31.2485 19.038C31.9684 18.3091 32.1925 17.2847 32.1925 16.4567C32.1925 16.2005 32.1732 15.9644 32.1339 15.7675H28.4659ZM35.1575 19.1463C34.3789 19.1463 33.7073 18.4962 33.7073 17.5703C33.7073 16.6341 34.3789 15.9938 35.1575 15.9938C35.9354 15.9938 36.6071 16.6341 36.6071 17.5703C36.6071 18.4962 35.9354 19.1463 35.1575 19.1463ZM35.1575 14.9695C33.7363 14.9695 32.5785 16.0629 32.5785 17.5703C32.5785 19.0674 33.7363 20.1712 35.1575 20.1712C36.5781 20.1712 37.7359 19.0674 37.7359 17.5703C37.7359 16.0629 36.5781 14.9695 35.1575 14.9695ZM40.7824 19.1463C40.0039 19.1463 39.3323 18.4962 39.3323 17.5703C39.3323 16.6341 40.0039 15.9938 40.7824 15.9938C41.561 15.9938 42.232 16.6341 42.232 17.5703C42.232 18.4962 41.561 19.1463 40.7824 19.1463ZM40.7824 14.9695C39.3619 14.9695 38.204 16.0629 38.204 17.5703C38.204 19.0674 39.3619 20.1712 40.7824 20.1712C42.203 20.1712 43.3609 19.0674 43.3609 17.5703C43.3609 16.0629 42.203 14.9695 40.7824 14.9695Z" fill="#667381"/>
<path fill-rule="evenodd" clip-rule="evenodd" d="M25.0617 9.16652H25.705C26.123 9.16652 26.4545 9.04544 26.6992 8.80205C26.9444 8.55988 27.0664 8.21986 27.0664 7.78261C27.0664 7.34903 26.9444 7.00963 26.6992 6.76501C26.4545 6.52162 26.123 6.3987 25.705 6.3987H25.0617V9.16652ZM24.5967 9.61723V5.948H25.705C26.2619 5.948 26.707 6.11801 27.0416 6.45802C27.375 6.79804 27.5423 7.23896 27.5423 7.78261C27.5423 8.32566 27.375 8.76719 27.0416 9.10721C26.707 9.44722 26.2619 9.61723 25.705 9.61723H24.5967Z" fill="#667381"/>
<path fill-rule="evenodd" clip-rule="evenodd" d="M25.0616 9.16652V9.22768H25.7048C26.1337 9.22829 26.484 9.1017 26.7413 8.84608C26.9998 8.59045 27.1272 8.23087 27.1266 7.78261C27.1272 7.33741 26.9998 6.97905 26.7419 6.72159C26.4846 6.46475 26.1343 6.33755 25.7048 6.33755H25.0012V9.22768H25.0616V9.16652H25.122V6.45986H25.7048C26.1119 6.46047 26.4248 6.57788 26.6567 6.80904C26.8881 7.04021 27.0052 7.36004 27.0058 7.78261C27.0052 8.20886 26.8881 8.5293 26.6567 8.75863C26.4248 8.98857 26.1119 9.10476 25.7048 9.10537H25.0616V9.16652H25.122H25.0616ZM24.5965 9.61723H24.6569V6.00915H25.7048C26.2496 6.00976 26.6761 6.17366 26.9986 6.50083C27.3205 6.82922 27.4812 7.2518 27.4818 7.78261C27.4812 8.31343 27.3205 8.736 26.9986 9.0644C26.6761 9.39157 26.2496 9.55546 25.7048 9.55607H24.5965V9.61723H24.6569H24.5965V9.67838H25.7048C26.2732 9.67899 26.7377 9.50348 27.0844 9.15062C27.4298 8.79899 27.6032 8.33789 27.6026 7.78261C27.6032 7.22672 27.4298 6.76624 27.0844 6.41521C26.7377 6.06174 26.2732 5.88623 25.7048 5.88684H24.5361V9.67838H24.5965V9.61723Z" fill="#667381"/>
<path fill-rule="evenodd" clip-rule="evenodd" d="M28.1953 9.61723H28.661V5.948H28.1953V9.61723Z" fill="#667381"/>
<path fill-rule="evenodd" clip-rule="evenodd" d="M28.1952 9.61722H28.2556V6.00915H28.5998V9.55607H28.1952V9.61722H28.2556H28.1952V9.67838H28.7206V5.88684H28.1348V9.67838H28.1952V9.61722Z" fill="#667381"/>
<path fill-rule="evenodd" clip-rule="evenodd" d="M30.5134 9.69921C30.2501 9.69921 29.9928 9.61237 29.7415 9.43809C29.4896 9.2638 29.3254 9.01918 29.248 8.70485L29.6733 8.53117C29.724 8.73237 29.8273 8.90238 29.9843 9.04059C30.142 9.17879 30.3177 9.2479 30.5134 9.2479C30.7157 9.2479 30.8891 9.19469 31.0322 9.08706C31.1754 8.97943 31.2472 8.83327 31.2472 8.64859C31.2472 8.44372 31.1754 8.28595 31.0322 8.17465C30.8891 8.06335 30.662 7.96061 30.3515 7.8646C30.0308 7.76247 29.788 7.62977 29.6225 7.4671C29.4576 7.30504 29.3743 7.09773 29.3743 6.84455C29.3743 6.58159 29.4776 6.35287 29.6835 6.1584C29.8895 5.96332 30.1577 5.86609 30.488 5.86609C30.7955 5.86609 31.0449 5.94375 31.237 6.09908C31.4291 6.25503 31.5541 6.42442 31.6115 6.60911L31.1869 6.78829C31.156 6.67271 31.0812 6.56447 30.9616 6.4654C30.842 6.36694 30.6874 6.3174 30.4977 6.3174C30.3189 6.3174 30.1667 6.36755 30.0405 6.46845C29.9136 6.56936 29.8502 6.69472 29.8502 6.84455C29.8502 6.98153 29.9088 7.0965 30.0248 7.19068C30.1419 7.28486 30.3129 7.36925 30.5388 7.44447C30.7176 7.50257 30.8667 7.55883 30.9869 7.61387C31.1065 7.66829 31.2279 7.74107 31.3511 7.83157C31.4744 7.92208 31.5668 8.0346 31.629 8.16975C31.6918 8.3049 31.7232 8.46085 31.7232 8.63819C31.7232 8.81615 31.687 8.97515 31.6145 9.11519C31.542 9.25523 31.4454 9.36592 31.3258 9.44848C31.2056 9.52982 31.0769 9.59219 30.9386 9.635C30.7997 9.67781 30.6584 9.69921 30.5134 9.69921Z" fill="#667381"/>
<path fill-rule="evenodd" clip-rule="evenodd" d="M30.5134 9.69921V9.63806C30.2633 9.63806 30.0193 9.55611 29.7759 9.38794C29.5361 9.22099 29.3815 8.99228 29.3066 8.69018L29.248 8.70485L29.2704 8.76173L29.6962 8.58744L29.6732 8.53118L29.6146 8.54585C29.6684 8.75928 29.7789 8.94091 29.9444 9.08706C30.1111 9.23322 30.3032 9.30966 30.5134 9.30966C30.726 9.30966 30.9138 9.25218 31.0685 9.13599C31.2261 9.01918 31.3088 8.84918 31.3076 8.64859C31.3088 8.42966 31.2279 8.24803 31.0691 8.12634C30.9156 8.0077 30.6831 7.90313 30.369 7.80589H30.3696C30.055 7.70621 29.82 7.57656 29.6648 7.42368C29.5114 7.27202 29.4353 7.08428 29.4347 6.84455C29.4353 6.5981 29.5289 6.38896 29.7246 6.20305C29.9185 6.0202 30.1691 5.92725 30.488 5.92725C30.7858 5.92725 31.0195 6.00185 31.1995 6.14679C31.3849 6.29723 31.5009 6.45745 31.5541 6.62746L31.6114 6.60911L31.5885 6.55285L31.1639 6.73203L31.1868 6.78829L31.2454 6.77239C31.2104 6.64152 31.1264 6.52288 30.9996 6.41831C30.8679 6.30885 30.697 6.25564 30.4977 6.25625C30.308 6.25564 30.1401 6.31007 30.003 6.42015C29.8641 6.529 29.7892 6.67699 29.7898 6.84455C29.7892 6.99988 29.8593 7.13687 29.9873 7.23838V7.239C30.1129 7.33929 30.2899 7.42613 30.52 7.50257C30.6976 7.56005 30.845 7.6157 30.9621 7.66952C31.0775 7.7215 31.1953 7.79244 31.3155 7.8805V7.88111C31.4308 7.9655 31.516 8.07008 31.5746 8.19544C31.6326 8.32142 31.6628 8.46819 31.6628 8.63819C31.6628 8.80759 31.6283 8.95619 31.5613 9.08645C31.4924 9.21916 31.4031 9.32128 31.2913 9.39773H31.2919C31.1766 9.476 31.054 9.53593 30.9211 9.57691C30.7882 9.61788 30.6523 9.63806 30.5134 9.63806V9.76037C30.6644 9.76037 30.8118 9.73835 30.9561 9.69371C31.1005 9.64907 31.2345 9.58424 31.3596 9.49863C31.4876 9.41118 31.5915 9.29193 31.6682 9.14333C31.7455 8.99411 31.7836 8.82471 31.7836 8.63819C31.7836 8.45351 31.751 8.28778 31.6839 8.14346C31.6175 7.99975 31.5172 7.87805 31.3861 7.78204C31.2605 7.68909 31.1361 7.61448 31.0117 7.55761C30.8885 7.50135 30.7375 7.44508 30.5569 7.38638H30.5575C30.3358 7.31299 30.1703 7.22982 30.0622 7.14298H30.0628C29.9577 7.05676 29.9118 6.96319 29.9106 6.84455C29.9118 6.71246 29.9625 6.60911 30.0773 6.51616H30.0779C30.1927 6.42443 30.3304 6.37856 30.4977 6.37856C30.6771 6.37856 30.816 6.42443 30.9235 6.5131L30.9241 6.51371L30.9235 6.5131C31.0364 6.60667 31.1017 6.70329 31.1282 6.80419L31.1464 6.87146L31.635 6.66537L31.6857 6.64397L31.6694 6.59077C31.6078 6.39202 31.4737 6.21222 31.275 6.05139C31.0697 5.88566 30.8051 5.80433 30.488 5.80494C30.1462 5.80433 29.8599 5.90707 29.6424 6.11377C29.4262 6.3168 29.3133 6.56508 29.3139 6.84455C29.3133 7.11118 29.4039 7.33806 29.5808 7.51113C29.7554 7.68297 30.0066 7.81873 30.3334 7.9227H30.334C30.6408 8.01748 30.8625 8.11961 30.9954 8.22357C31.1234 8.32386 31.1856 8.45779 31.1868 8.64859C31.1856 8.81738 31.1252 8.93968 30.9966 9.03814C30.8643 9.1366 30.7048 9.18674 30.5134 9.18736C30.3316 9.18674 30.1721 9.12437 30.0235 8.99472H30.0242C29.8756 8.86385 29.7801 8.70608 29.7318 8.51589L29.7149 8.44801L29.2257 8.64859L29.1768 8.66816L29.1894 8.71953C29.2692 9.0467 29.4437 9.30661 29.7077 9.48884C29.9668 9.66803 30.2368 9.76037 30.5134 9.76037V9.69921Z" fill="#667381"/>
<path fill-rule="evenodd" clip-rule="evenodd" d="M32.8568 7.67987H33.6365C33.8322 7.67987 33.9893 7.61383 34.107 7.48051C34.2248 7.3472 34.284 7.20043 34.284 7.03959C34.284 6.87876 34.2248 6.73199 34.107 6.59929C33.9893 6.46536 33.8322 6.3987 33.6365 6.3987H32.8568V7.67987ZM32.8568 9.61723H32.3911V5.948H33.6263C33.9331 5.948 34.1988 6.05135 34.4229 6.25805C34.6476 6.46475 34.76 6.72526 34.76 7.03959C34.76 7.35392 34.6476 7.61444 34.4229 7.82114C34.1988 8.02784 33.9331 8.13119 33.6263 8.13119H32.8568V9.61723Z" fill="#667381"/>
<path fill-rule="evenodd" clip-rule="evenodd" d="M32.8566 7.67988V7.74103H33.6364C33.8454 7.74164 34.0229 7.66765 34.1516 7.52149H34.1522C34.2778 7.379 34.3449 7.21572 34.3443 7.0396C34.3449 6.86347 34.2778 6.70019 34.1516 6.55831H34.1522C34.0229 6.41155 33.8454 6.33694 33.6364 6.33755H32.7962V7.74103H32.8566V7.67988H32.917V6.45986H33.6364C33.8188 6.46108 33.9547 6.51979 34.0616 6.63965L34.0628 6.64087L34.0616 6.63965C34.1715 6.7644 34.2229 6.89466 34.2235 7.0396C34.2229 7.18453 34.1715 7.31479 34.0616 7.43954C33.9547 7.5594 33.8188 7.61811 33.6364 7.61872H32.8566V7.67988H32.917H32.8566ZM32.8566 9.61723V9.55608H32.4514V6.00915H33.6261C33.9197 6.00977 34.1679 6.10639 34.3823 6.3033C34.5955 6.50022 34.6988 6.73994 34.6994 7.0396C34.6988 7.33925 34.5955 7.57897 34.3823 7.77589C34.1679 7.9728 33.9197 8.06943 33.6261 8.07004H32.7962V9.61723H32.8566V9.55608V9.61723H32.917V8.19235H33.6261C33.9462 8.19296 34.2295 8.08288 34.4639 7.86578C34.7 7.6493 34.8208 7.3686 34.8202 7.0396C34.8208 6.71059 34.7 6.42928 34.4639 6.2128C34.2295 5.99631 33.9462 5.88623 33.6261 5.88684H32.3306V9.67838H32.917V9.61723H32.8566Z" fill="#667381"/>
<path fill-rule="evenodd" clip-rule="evenodd" d="M35.9972 8.83572C36.2654 9.11091 36.5934 9.2479 36.9817 9.2479C37.3695 9.2479 37.6981 9.11091 37.9662 8.83572C38.2344 8.56053 38.3691 8.2095 38.3691 7.78265C38.3691 7.3558 38.2344 7.00477 37.9662 6.72958C37.6981 6.45439 37.3695 6.3174 36.9817 6.3174C36.5934 6.3174 36.2654 6.45439 35.9972 6.72958C35.7297 7.00477 35.595 7.3558 35.595 7.78265C35.595 8.2095 35.7297 8.56053 35.9972 8.83572ZM38.3105 9.14332C37.9541 9.51392 37.5114 9.69921 36.9817 9.69921C36.452 9.69921 36.0087 9.51392 35.6536 9.14332C35.2972 8.77273 35.1196 8.31897 35.1196 7.78265C35.1196 7.24633 35.2972 6.79257 35.6536 6.42198C36.0087 6.05138 36.452 5.86609 36.9817 5.86609C37.5084 5.86609 37.9499 6.052 38.3081 6.42442C38.6656 6.79685 38.8444 7.24939 38.8444 7.78265C38.8444 8.31897 38.6663 8.77273 38.3105 9.14332Z" fill="#667381"/>
<path fill-rule="evenodd" clip-rule="evenodd" d="M35.9971 8.83572L35.9542 8.87853C36.232 9.16473 36.5793 9.31027 36.9816 9.30966C37.3838 9.31027 37.7311 9.16473 38.009 8.87853C38.2886 8.59294 38.4299 8.22235 38.4293 7.78265C38.4299 7.34295 38.2886 6.97297 38.009 6.68677C37.7311 6.40057 37.3838 6.25564 36.9816 6.25625C36.5793 6.25564 36.232 6.40057 35.9542 6.68677L35.9524 6.68861L35.9542 6.68677C35.6746 6.97297 35.5338 7.34295 35.5344 7.78265C35.5338 8.22235 35.6746 8.59294 35.9542 8.87853L36.04 8.79291C35.7839 8.52934 35.6558 8.19666 35.6552 7.78265C35.6558 7.36864 35.7839 7.03596 36.04 6.77239C36.2985 6.5082 36.6077 6.37917 36.9816 6.37856C37.3555 6.37917 37.6653 6.5082 37.9226 6.77239H37.9232C38.1799 7.03657 38.3079 7.36864 38.3085 7.78265C38.3079 8.19666 38.1799 8.52873 37.9232 8.79291C37.6653 9.0571 37.3555 9.18674 36.9816 9.18735C36.6077 9.18613 36.2985 9.0571 36.04 8.79291L35.9971 8.83572ZM38.3104 9.14332L38.2669 9.10052C37.9208 9.4601 37.4974 9.63745 36.9816 9.63806C36.4658 9.63745 36.0418 9.4601 35.6963 9.10052L35.6945 9.09868L35.6963 9.10052C35.3508 8.74032 35.1805 8.30552 35.1799 7.78265C35.1805 7.25978 35.3508 6.82498 35.6963 6.46478C36.0418 6.1052 36.4658 5.92785 36.9816 5.92724C37.4944 5.92785 37.9166 6.10642 38.2645 6.46723C38.6117 6.82926 38.7833 7.26345 38.7839 7.78265C38.7833 8.30552 38.6124 8.74032 38.2669 9.10052L38.3538 9.18552C38.7199 8.80514 38.9053 8.33242 38.9047 7.78265C38.9053 7.23593 38.7193 6.76444 38.3514 6.38223C37.9836 5.99818 37.5222 5.80432 36.9816 5.80493C36.438 5.80432 35.9753 5.99757 35.6099 6.37978C35.2427 6.76077 35.0585 7.23288 35.0591 7.78265C35.0585 8.33242 35.2427 8.80514 35.6099 9.18552C35.9753 9.56834 36.438 9.76098 36.9816 9.76037C37.5252 9.76098 37.9872 9.56834 38.3538 9.18552L38.3104 9.14332Z" fill="#667381"/>
<path fill-rule="evenodd" clip-rule="evenodd" d="M39.4976 9.61723V5.948H40.0641L41.8253 8.80205H41.8453L41.8253 8.09511V5.948H42.2916V9.61723H41.8054L39.9626 6.62436H39.9427L39.9626 7.33191V9.61723H39.4976Z" fill="#667381"/>
<path fill-rule="evenodd" clip-rule="evenodd" d="M39.4979 9.61722H39.5583V6.00915H40.0312L41.7924 8.86381H41.9078L41.8861 8.09449V6.00915H42.2315V9.55607H41.8396L39.9968 6.5632H39.8808L39.9026 7.33252V9.55607H39.4979V9.61722H39.5583H39.4979V9.67838H40.0234V7.33068L40.0034 6.62313L39.943 6.62436V6.68551H39.963V6.62436L39.9116 6.65677L41.7725 9.67838H42.3523V5.88684H41.7653V8.09572L41.7858 8.80388L41.8456 8.80204V8.7415H41.8257V8.80204L41.877 8.77024L40.0983 5.88684H39.4375V9.67838H39.4979V9.61722Z" fill="#667381"/>
<path fill-rule="evenodd" clip-rule="evenodd" d="M43.5565 5.66045H43.1518L43.4151 5.00427H43.9213L43.5565 5.66045ZM43.1216 9.6165H43.5873V5.94726H43.1216V9.6165Z" fill="#667381"/>
<path fill-rule="evenodd" clip-rule="evenodd" d="M43.5563 5.66118V5.60003H43.241L43.4554 5.06616H43.8178L43.5038 5.63122L43.5563 5.66118V5.60003V5.66118L43.6095 5.69115L44.0244 4.94385H43.3745L43.0616 5.72234H43.5919L43.6095 5.69115L43.5563 5.66118ZM43.1214 9.61722H43.1818V6.00915H43.5261V9.55607H43.1214V9.61722H43.1818H43.1214V9.67838H43.6469V5.88684H43.061V9.67838H43.1214V9.61722Z" fill="#667381"/>
<path fill-rule="evenodd" clip-rule="evenodd" d="M45.3127 9.61723L44.0371 5.948H44.5535L45.5453 8.92558H45.5658L46.5986 5.948H47.1144L45.7983 9.61723H45.3127Z" fill="#667381"/>
<path fill-rule="evenodd" clip-rule="evenodd" d="M45.3129 9.61722L45.3697 9.59704L44.1231 6.00915H44.5102L45.5026 8.98673H45.6089L46.6417 6.00915H47.0283L45.7563 9.55607H45.3129V9.61722L45.3697 9.59704L45.3129 9.61722V9.67838H45.8414L47.201 5.88684H46.5559L45.5086 8.90539L45.566 8.92557V8.86442H45.5455V8.92557L45.6028 8.90601L44.5972 5.88684H43.9521L45.2701 9.67838H45.3129V9.61722Z" fill="#667381"/>
<path fill-rule="evenodd" clip-rule="evenodd" d="M49.7564 6.3987H48.1063V7.56246H49.5945V8.00277H48.1063V9.16652H49.7564V9.61723H47.6406V5.948H49.7564V6.3987Z" fill="#667381"/>
<path fill-rule="evenodd" clip-rule="evenodd" d="M49.7563 6.3987V6.33754H48.0458V7.62361H49.534V7.94161H48.0458V9.22767H49.6959V9.55607H47.7009V6.00915H49.6959V6.3987H49.7563V6.33754V6.3987H49.8167V5.88684H47.5801V9.67838H49.8167V9.10537H48.1666V8.06392H49.6548V7.5013H48.1666V6.45985H49.8167V6.3987H49.7563Z" fill="#667381"/>
<path fill-rule="evenodd" clip-rule="evenodd" d="M50.4854 9.61723V5.948H50.951V9.16652H52.5196V9.61723H50.4854Z" fill="#667381"/>
<path fill-rule="evenodd" clip-rule="evenodd" d="M50.4857 9.61722H50.5461V6.00915H50.891V9.22767H52.4595V9.55607H50.4857V9.61722H50.5461H50.4857V9.67838H52.5803V9.10537H51.0118V5.88684H50.4253V9.67838H50.4857V9.61722Z" fill="#667381"/>
<path fill-rule="evenodd" clip-rule="evenodd" d="M54.3218 9.61723V5.948H54.8883L56.6496 8.80205H56.6695L56.6496 8.09511V5.948H57.1158V9.61723H56.6296L54.7868 6.62436H54.7669L54.7868 7.33191V9.61723H54.3218Z" fill="#667381"/>
<path fill-rule="evenodd" clip-rule="evenodd" d="M54.3221 9.61722H54.3825V6.00915H54.8554L56.6167 8.86381H56.732L56.7103 8.09449V6.00915H57.0558V9.55607H56.6638L54.821 6.5632H54.705L54.7268 7.33252V9.55607H54.3221V9.61722H54.3825H54.3221V9.67838H54.8476V7.33068L54.8277 6.62313L54.7673 6.62436V6.68551H54.7872V6.62436L54.7358 6.65677L56.5967 9.67838H57.1766V5.88684H56.5895V8.09633L56.6094 8.80388L56.6698 8.80204V8.7415H56.6499V8.80204L56.7012 8.77024L54.9225 5.88684H54.2617V9.67838H54.3221V9.61722Z" fill="#667381"/>
<path fill-rule="evenodd" clip-rule="evenodd" d="M58.5963 8.83572C58.8645 9.11091 59.1925 9.2479 59.5808 9.2479C59.9686 9.2479 60.2972 9.11091 60.5654 8.83572C60.8335 8.56053 60.9682 8.2095 60.9682 7.78265C60.9682 7.3558 60.8335 7.00477 60.5654 6.72958C60.2972 6.45439 59.9686 6.3174 59.5808 6.3174C59.1925 6.3174 58.8645 6.45439 58.5963 6.72958C58.3288 7.00477 58.1941 7.3558 58.1941 7.78265C58.1941 8.2095 58.3288 8.56053 58.5963 8.83572ZM60.9096 9.14332C60.5533 9.51392 60.1105 9.69921 59.5808 9.69921C59.0511 9.69921 58.6078 9.51392 58.2527 9.14332C57.8963 8.77273 57.7188 8.31897 57.7188 7.78265C57.7188 7.24633 57.8963 6.79257 58.2527 6.42198C58.6078 6.05138 59.0511 5.86609 59.5808 5.86609C60.1075 5.86609 60.549 6.052 60.9072 6.42442C61.2648 6.79685 61.4436 7.24939 61.4436 7.78265C61.4436 8.31897 61.2654 8.77273 60.9096 9.14332Z" fill="#667381"/>
<path fill-rule="evenodd" clip-rule="evenodd" d="M58.5962 8.83572L58.5533 8.87853C58.8312 9.16473 59.1784 9.31027 59.5807 9.30966C59.983 9.31027 60.3303 9.16473 60.6081 8.87853C60.8877 8.59294 61.0291 8.22235 61.0285 7.78265C61.0291 7.34295 60.8877 6.97297 60.6081 6.68677C60.3303 6.40057 59.983 6.25564 59.5807 6.25625C59.1784 6.25564 58.8312 6.40057 58.5533 6.68677C58.2737 6.97297 58.1329 7.34295 58.1335 7.78265C58.1329 8.22235 58.2737 8.59294 58.5533 8.87853L58.6391 8.79291C58.383 8.52934 58.2549 8.19666 58.2543 7.78265C58.2549 7.36864 58.383 7.03596 58.6391 6.77239C58.8976 6.5082 59.2062 6.37917 59.5807 6.37856C59.9546 6.37917 60.2644 6.5082 60.5217 6.77239L60.5241 6.77422L60.5223 6.77239C60.779 7.03657 60.9071 7.36864 60.9077 7.78265C60.9071 8.19666 60.779 8.52873 60.5223 8.79291C60.2644 9.0571 59.9546 9.18674 59.5807 9.18735C59.2062 9.18613 58.8976 9.0571 58.6391 8.79291L58.5962 8.83572ZM60.9095 9.14332L60.866 9.10052C60.5199 9.4601 60.0965 9.63745 59.5807 9.63806C59.0649 9.63745 58.6409 9.4601 58.2954 9.10052L58.2936 9.09868L58.2954 9.10052C57.9499 8.74032 57.7796 8.30552 57.779 7.78265C57.7796 7.25978 57.9499 6.82498 58.2954 6.46478C58.6409 6.1052 59.0649 5.92785 59.5807 5.92724C60.0935 5.92785 60.5157 6.10642 60.8636 6.46723C61.2109 6.82926 61.3824 7.26345 61.383 7.78265C61.3824 8.30552 61.2109 8.74032 60.866 9.10052L60.953 9.18552C61.319 8.80514 61.5044 8.33242 61.5038 7.78265C61.5044 7.23593 61.3184 6.76444 60.9506 6.38223C60.5821 5.99818 60.1213 5.80432 59.5807 5.80493C59.0371 5.80432 58.5745 5.99757 58.209 6.37978C57.8418 6.76077 57.6576 7.23288 57.6582 7.78265C57.6576 8.33242 57.8418 8.80514 58.209 9.18552C58.5745 9.56834 59.0371 9.76098 59.5807 9.76037C60.1243 9.76098 60.5863 9.56834 60.953 9.18552L60.9095 9.14332Z" fill="#667381"/>
</g>
<defs>
<clipPath id="clip0_5951_11934">
<rect width="80" height="27" fill="white" transform="translate(0.398438)"/>
</clipPath>
</defs>
</svg>
