<svg xmlns="http://www.w3.org/2000/svg" width="100" height="48" viewBox="0 0 100 48" fill="none">
<path d="M82.5544 0H84.2992V14.4279H82.5544V0ZM77.7429 7.80222V7.35341C77.7429 6.41014 77.5201 5.74073 77.0744 5.32488C76.6287 4.90903 75.8943 4.71379 74.8687 4.71379C73.0606 4.71379 72.0224 5.35447 71.754 6.63582L70.1079 6.34675C70.17 5.86967 70.3541 5.41675 70.6425 5.03196C70.931 4.6472 71.3138 4.34366 71.754 4.15087C72.7699 3.67118 73.8824 3.43254 75.0055 3.45357C76.7039 3.45357 77.8779 3.79672 78.528 4.48304C78.919 4.88061 79.1833 5.38536 79.2877 5.93344C79.4037 6.61343 79.4571 7.30264 79.4472 7.99239V12.1712C79.4196 12.9303 79.5103 13.6891 79.7156 14.4203H77.9658L77.7278 12.4247C76.9681 13.8878 75.6512 14.6155 73.757 14.6155C72.7416 14.651 71.7431 14.3477 70.9183 13.7534C70.5488 13.4784 70.252 13.1168 70.0543 12.7004C69.8565 12.284 69.7635 11.8255 69.7838 11.3648C69.7919 10.7406 69.9975 10.1351 70.3713 9.6355C70.759 9.08879 71.2964 8.66607 71.9186 8.41838C72.8074 8.00761 74.2736 7.80222 76.302 7.80222H77.7429ZM77.7429 9.07005H76.3046C73.2473 9.07005 71.7193 9.87301 71.721 11.4789C71.7096 11.7522 71.7687 12.0239 71.8917 12.268C72.015 12.5121 72.1986 12.7206 72.425 12.8735C72.9325 13.2121 73.5324 13.3848 74.142 13.368C74.8011 13.3798 75.4502 13.2039 76.0134 12.8609C76.5454 12.5335 76.982 12.0718 77.2795 11.522C77.5771 10.9734 77.7321 10.3587 77.7303 9.73439L77.7429 9.07005ZM68.3201 14.5242L66.6108 14.6257C65.4231 14.6257 64.5849 14.3315 64.1114 13.7357C63.6378 13.1398 63.3947 12.2853 63.3947 11.1493V4.98003H61.3688V3.63106H63.3947V0.996513L65.1395 0.82916V3.63106H67.6718V4.98003H65.1395V11.4105C65.1395 12.0748 65.2719 12.5616 65.5371 12.871C65.7903 13.1829 66.274 13.3376 66.9526 13.3376L68.3201 13.2032V14.5242ZM52.3461 5.72044H52.3816C52.7006 5.05042 53.1995 4.48241 53.8225 4.07987C54.4517 3.67171 55.1874 3.45907 55.937 3.46878C56.5716 3.44112 57.2021 3.58093 57.7656 3.87421C58.3293 4.16748 58.8059 4.60392 59.148 5.13978C59.5202 5.74073 59.7026 6.86656 59.7026 8.51474V14.4279H57.9578V7.80729C57.9578 6.84374 57.8547 6.1887 57.6488 5.84216C57.4399 5.53466 57.1497 5.29146 56.8106 5.13978C56.451 4.97291 56.0598 4.88636 55.6635 4.88621C55.2216 4.8767 54.7832 4.96758 54.3816 5.15205C53.9797 5.33649 53.6249 5.60971 53.3438 5.95119C52.7462 6.61553 52.4499 7.56387 52.4499 8.81141V14.4279H50.6773V3.72742H52.3537L52.3461 5.72044ZM46.0887 7.9645C46.1201 7.12003 45.8387 6.2937 45.2986 5.64437C44.7617 5.03328 44.0147 4.729 43.0448 4.729C42.6206 4.71822 42.199 4.79863 41.8085 4.96487C41.418 5.13108 41.0676 5.37922 40.7809 5.69255C40.1888 6.30719 39.8475 7.12106 39.8237 7.97464L46.0887 7.9645ZM47.8411 11.4662C47.5152 12.4291 46.8631 13.2472 45.9975 13.7788C45.1046 14.3434 44.0679 14.6374 43.0119 14.6257C41.359 14.6257 40.0718 14.0957 39.1501 13.0358C38.2169 11.9387 37.7249 10.5332 37.7699 9.09287C37.7669 8.36377 37.8867 7.6394 38.1245 6.95024C38.3534 6.29196 38.7059 5.6835 39.1627 5.15753C39.6213 4.62925 40.1888 4.20704 40.8265 3.92013C41.5262 3.60976 42.2849 3.45572 43.0499 3.46878C43.8068 3.45308 44.5579 3.6037 45.2505 3.90998C45.8572 4.18049 46.3898 4.59367 46.8028 5.11442C47.2148 5.65616 47.5222 6.27017 47.7094 6.92488C47.9163 7.66763 48.0178 8.43588 48.0107 9.20697H39.7578C39.7578 10.2212 39.9174 11.0428 40.2314 11.6209C40.5039 12.1326 40.9227 12.5511 41.4342 12.8228C41.9559 13.1119 42.5421 13.2645 43.1385 13.2666C43.8126 13.2832 44.4751 13.0882 45.0327 12.7087C45.5683 12.3269 45.9727 11.7883 46.19 11.167L47.8411 11.4662ZM33.6372 0H35.382V14.4279H33.7689V12.5312H33.7385C32.999 13.9292 31.8114 14.6274 30.1755 14.6257C29.4897 14.6391 28.8115 14.4811 28.2023 14.1659C27.5927 13.8506 27.0716 13.3881 26.6859 12.8203C25.9794 11.8364 25.6248 10.599 25.6248 9.09287C25.5995 7.68434 26.0265 6.30484 26.8429 5.15753C27.6449 4.0317 28.8055 3.46878 30.3249 3.46878C31.6602 3.46878 32.7668 4.03847 33.6448 5.17781L33.6372 0ZM33.6372 8.071C33.6372 7.19112 33.432 6.49635 33.0193 5.98162C32.763 5.58093 32.3951 5.26441 31.9608 5.07132C31.4996 4.85779 30.9975 4.74787 30.4895 4.74929C29.5196 4.74929 28.7624 5.20063 28.2104 6.10079C27.7545 6.79556 27.5266 7.71431 27.5266 8.85705C27.5046 9.91767 27.7292 10.9689 28.1825 11.9277C28.6206 12.8228 29.3676 13.2666 30.4287 13.2666C30.9248 13.2838 31.4173 13.1749 31.8602 12.9501C32.3029 12.7254 32.6817 12.3919 32.961 11.981C33.4313 11.3403 33.6724 10.5595 33.6448 9.76482L33.6372 8.071Z" fill="#FFA33E"/>
<path d="M74.4129 20.7924L75.0561 20.8685C75.246 21.3959 75.3929 22.1363 75.0561 22.6866C74.7902 23.1227 71.5614 25.453 71.0043 25.5671C71.5336 23.7566 72.8656 21.6368 74.4103 20.7924H74.4129ZM38.8006 20.4425C39.009 20.4127 39.2214 20.4519 39.4058 20.5541C39.5476 20.8964 39.7451 21.7103 39.5197 22.1845C39.0285 23.219 36.6253 24.4995 35.6225 25.1766L35.4705 25.1385V25.103C36.0401 23.2259 37.2102 21.5884 38.8006 20.4425ZM13.9836 8.23838C8.31624 11.8796 4.88745 15.8276 1.60047 21.8422C-0.202554 25.1385 -0.840704 30.0349 1.60047 33.098C3.01605 34.8729 5.54333 35.8644 8.37195 35.6184C8.72395 32.3068 12.2616 30.8691 14.6901 33.1461C17.6834 30.9908 20.2967 28.0748 22.2998 25.2146C23.1456 24.0102 23.8775 22.6079 24.8727 21.5531C25.504 21.802 26.0999 22.1328 26.6453 22.5369C26.5997 23.2621 25.6476 24.5173 25.2829 25.0726C24.4283 26.4611 23.7181 27.9336 23.1634 29.4669C22.8417 30.2935 22.4036 31.5943 22.824 32.6136C23.1431 33.3743 24.4498 33.9652 25.6602 33.5595C27.7646 32.8571 29.2055 31.4168 30.8465 30.2251C30.9604 30.5775 31.0744 30.9325 31.1858 31.2875C31.5745 32.0381 32.1481 32.6768 32.8521 33.1436C33.5586 33.5873 34.3082 33.7877 35.4629 33.7877C39.1044 33.7877 40.5656 31.4117 42.5535 29.7306H42.5915V29.9208C42.3382 30.5699 41.7381 31.5487 41.9837 32.4564C42.3306 33.7243 44.2198 34.277 45.2403 33.2526C45.9063 32.5832 46.2532 31.5512 46.7926 30.7525C48.231 28.5896 49.6516 26.4621 51.2191 24.4615C51.8421 23.6653 52.5132 22.7677 53.4147 22.2631L53.5286 22.3011L50.31 30.22C49.7403 31.6805 49.9049 33.1157 51.1432 33.7446C51.5496 33.9639 52.0232 34.0235 52.4709 33.9114C52.9189 33.7993 53.3088 33.5237 53.5641 33.1385L54.4352 31.432L58.2945 25.7116L60.523 23.0948L61.2827 22.4862L61.6625 22.4482C60.6276 25.065 59.5928 27.68 58.5579 30.2935C57.9248 31.9823 58.4971 33.4935 60.0773 33.9702C62.0474 34.5636 64.4506 32.0558 65.5269 31.3154C65.8687 31.0821 66.0713 30.7018 66.5854 30.6333V30.7094C66.7728 31.181 66.788 31.6171 67.0412 32C68.2821 33.8739 71.2044 34.9338 73.8532 33.5518C75.8538 32.5097 77.2086 31.039 78.6976 29.4948C79.8523 28.298 81.0527 27.0783 82.0276 25.7065C82.5341 24.9965 83.9167 22.4634 84.4865 22.1059C85.1356 22.2758 85.7334 22.6013 86.2288 23.0542C86.1806 23.8149 85.545 24.4311 85.2158 24.9484C84.2029 26.4926 83.0735 28.2295 82.3771 29.9867C81.6553 31.8175 81.9035 33.316 83.5875 33.9677C84.8258 34.4444 86.0996 33.8739 86.9201 33.3972C88.9384 32.2353 90.7221 30.7063 92.1798 28.8888C92.6862 28.2599 94.2639 26.2466 93.0509 25.4022C92.1342 25.4175 91.4859 26.5991 91.0427 27.1468C90.4375 27.9075 87.738 30.0501 86.6542 30.2149L86.5782 30.1769L86.4643 29.9867C86.5225 28.8507 88.1407 26.6117 88.6978 25.7446C89.049 25.0498 89.4025 24.355 89.7588 23.6602C90.2653 22.7601 90.9465 21.4086 90.0982 20.3639C89.3967 19.4992 86.9581 18.8678 85.859 18.3176L84.9145 17.7091C84.603 17.3515 84.7651 16.8038 84.3092 16.5731C83.2457 16.0051 81.9542 17.5671 81.7769 18.2796C81.5237 19.2482 82.1542 20.3791 81.9668 20.9699C81.7794 21.5607 81.3008 22.187 80.9818 22.6739C79.4472 25.0117 77.9733 27.3547 75.798 29.0409C75.0383 29.619 72.544 31.2444 71.255 30.1008C71.0621 29.9527 70.9142 29.7537 70.8273 29.5262C70.7407 29.299 70.7187 29.0518 70.7638 28.8127C71.2044 28.2092 71.9362 27.9633 72.506 27.4865C74.1748 26.0869 77.4669 24.6973 78.5988 22.9782C79.865 21.0637 78.5988 18.9211 77.0085 18.3556C75.5246 17.8156 73.7165 18.3024 72.6554 18.8476C69.9635 20.2447 68.1656 22.7322 67.0564 25.7065C66.7576 26.5052 66.6563 27.5601 66.1473 28.1686C65.7269 28.6758 65.0179 28.9496 64.481 29.3427C64.1341 29.5962 63.3896 30.2656 62.8932 30.1769C62.8932 29.3756 63.2326 28.8583 63.4605 28.2827C64.2936 26.1629 65.1673 24.2003 65.9194 22.1059C66.3575 20.8888 66.9931 19.3724 65.8054 18.4672C64.7925 17.7065 63.1085 18.1883 62.2602 18.6954C60.7699 19.6246 59.4505 20.804 58.3604 22.182C58.0311 22.5927 57.0942 24.0482 56.6586 24.1902V24.0381C57.3322 22.7702 58.0413 21.581 58.4009 20.0216C58.6744 18.8222 56.9853 17.6355 55.7115 17.9373C53.3792 18.49 51.171 20.9623 49.8871 22.6358L48.4488 24.4564L48.3728 24.4184V24.3804C49.0135 23.2343 49.8643 21.3376 50.1454 19.9835C50.5101 18.2669 48.6944 17.6482 47.1573 17.8992L46.5141 17.9373C45.7696 18.2644 45.2479 21.974 44.8098 22.9401C44.5186 23.5943 44.3666 24.4843 44.0146 25.136C43.4626 26.1173 40.9834 28.1458 40.011 28.8152C39.2513 29.3224 36.4657 31.0213 35.4325 29.6114C35.2971 29.458 35.1965 29.277 35.138 29.0807C35.0795 28.8847 35.0641 28.6781 35.0932 28.4755C36.6785 26.8171 39.2437 25.7953 41.0341 24.3068C41.6722 23.7769 42.3661 23.4701 42.8498 22.7854C44.2856 20.7696 43.0448 18.5763 41.186 17.9347C39.5501 17.3693 37.704 18.1072 36.719 18.6954C34.1433 20.2656 32.2213 22.7151 31.3074 25.5924C31.0921 26.2618 30.8794 26.9312 30.6641 27.6007C30.3653 28.1382 28.7953 28.9572 28.2052 29.3046C27.8254 29.5303 27.1442 30.0805 26.5769 29.8371C26.6327 28.9674 27.3544 28.1686 27.7114 27.5246C28.5547 26.0032 29.4638 24.5934 30.2109 23.0542C30.5704 22.3113 31.3327 20.904 30.5882 19.9455C29.7196 18.8273 27.6203 18.5306 26.349 17.8232C25.9743 17.6152 25.3716 17.3743 25.1766 16.9915C24.9385 16.5173 25.0879 16.1927 24.6093 15.9772C23.2444 15.6045 22.272 17.0168 22.077 18.0235C21.9022 18.9033 22.5024 19.7984 22.4163 20.2219L21.7782 21.4644C19.3496 25.2501 16.3032 28.7239 12.0438 30.6815C10.1041 31.569 7.43752 32.1648 5.45976 30.8691C3.34526 29.4846 3.35285 26.7537 4.17333 24.0482C5.39898 19.9911 9.21016 15.8276 12.1578 13.3984C13.2502 12.4637 14.5088 11.7437 15.8677 11.2761C16.3995 11.1087 17.3871 11.0225 17.7214 11.4663C18.6811 12.7341 16.1538 14.6105 16.0551 15.6349C16.7692 17.1056 19.185 15.4574 19.8029 14.9883C21.3223 13.8472 23.1583 10.5408 21.5047 8.24345C20.0536 6.21492 15.7157 7.12522 13.976 8.24345" fill="#0B4687"/>
<path d="M14.0545 35.0631C14.9889 37.0916 17.1288 38.8007 20.1853 40.3246C34.6602 47.5335 59.5075 45.33 75.0003 40.5959C82.9975 38.1515 89.2574 35.1671 96.3252 30.7297C96.6898 30.5014 96.8772 30.3797 97.0038 30.2986C96.0846 28.653 94.4563 28.9851 93.6586 29.013C97.1305 26.3404 102.051 32.9915 97.6699 33.2602C97.6643 32.3834 97.503 31.5144 97.1938 30.6942C91.9898 35.7655 81.0678 40.7024 74.6306 42.8653C58.6237 48.2434 32.414 50.9794 17.4327 43.0098C13.9456 41.1563 11.5956 38.9376 10.4383 36.4171C9.28105 33.8967 12.6668 32.0457 14.0545 35.0707" fill="#FFA33E"/>
</svg>