<svg width="81" height="27" viewBox="0 0 81 27" fill="none" xmlns="http://www.w3.org/2000/svg">
<g clip-path="url(#clip0_5951_11900)">
<path fill-rule="evenodd" clip-rule="evenodd" d="M6.75489 -0.00012207H73.8216C74.0612 -0.00012207 74.3047 -0.00012207 74.5443 0.00122793C74.7101 0.00230236 74.8794 0.00513534 75.0465 0.00793163C75.0841 0.008561 75.1216 0.0091885 75.1589 0.00979368C75.6057 0.0148209 76.0515 0.0547101 76.4922 0.129107C76.9347 0.205328 77.3635 0.347974 77.7644 0.552332C78.5662 0.969283 79.2187 1.63022 79.6302 2.4422C79.8313 2.84678 79.9705 3.27998 80.043 3.72694C80.1173 4.17365 80.1587 4.62535 80.1667 5.07829C80.1693 5.28527 80.1693 5.49291 80.1693 5.69989C80.1745 5.94409 80.1745 6.18894 80.1745 6.43577V6.43685V20.5637V20.5648C80.1745 20.8136 80.1745 21.0572 80.1693 21.302C80.1693 21.5116 80.1693 21.7146 80.1667 21.9243C80.1587 22.3772 80.1173 22.8289 80.043 23.2756C79.9707 23.7228 79.8315 24.1563 79.6302 24.561C79.4257 24.9638 79.1599 25.3315 78.8425 25.6506C78.5274 25.9725 78.1634 26.2411 77.7644 26.4463C77.3635 26.6512 76.9347 26.7947 76.4922 26.8721C76.0514 26.9458 75.6057 26.9857 75.1589 26.9914C74.9558 26.996 74.7474 26.9986 74.5443 26.9986C74.305 27 74.0619 27 73.8226 27H73.8216H6.75489H6.75386C6.50976 27 6.26854 27 6.02507 26.9986C5.82097 26.9986 5.6185 26.996 5.41244 26.9914C4.96481 26.9854 4.51825 26.9455 4.0765 26.8721C3.6354 26.7952 3.20822 26.6517 2.80925 26.4463C2.40981 26.2413 2.04547 25.9726 1.73015 25.6506C1.41192 25.3328 1.14665 24.9648 0.944671 24.561C0.741843 24.1565 0.601328 23.7231 0.528004 23.2756C0.45378 22.829 0.413838 22.3772 0.408538 21.9243C0.404311 21.7811 0.402667 21.6409 0.40101 21.4997C0.400241 21.4342 0.39947 21.3684 0.398438 21.302V5.69989C0.399483 5.63355 0.40026 5.56713 0.401037 5.50069C0.402685 5.35986 0.404334 5.21893 0.408538 5.07831C0.413836 4.62542 0.453778 4.17362 0.528004 3.72696C0.601531 3.27975 0.742038 2.84651 0.944671 2.44222C1.14675 2.03713 1.41197 1.66765 1.73015 1.34799C2.04667 1.02743 2.41077 0.758984 2.80925 0.552392C3.20822 0.347534 3.63545 0.20485 4.0765 0.129167C4.51818 0.0550972 4.96478 0.0152219 5.41244 0.00988818C5.45522 0.00920293 5.49784 0.00849091 5.54036 0.0077807C5.70264 0.00506993 5.86334 0.00238541 6.02507 0.00131568C6.26889 -0.00012207 6.51042 -0.00012207 6.75489 -0.00012207ZM5.42549 26.402C5.62702 26.4066 5.82523 26.4093 6.02835 26.4093L73.8216 26.4106L74.5443 26.4093C74.7428 26.4093 74.9473 26.4066 75.1426 26.402C75.5601 26.3969 75.9766 26.3601 76.3887 26.2919C76.7757 26.2255 77.1506 26.1004 77.5007 25.9208C77.8463 25.743 78.1613 25.5099 78.4336 25.2306C78.7065 24.9568 78.935 24.6412 79.1107 24.2953C79.2871 23.9405 79.4085 23.5603 79.4707 23.168C79.5388 22.7544 79.5769 22.3362 79.5846 21.9169C79.5872 21.71 79.5872 21.5089 79.5872 21.2894C79.5925 21.0481 79.5925 20.8088 79.5925 20.5636V6.43677C79.5925 6.19386 79.5925 5.95293 79.5872 5.69981C79.5872 5.49546 79.5872 5.29013 79.5853 5.09897C79.5774 4.67205 79.5386 4.2463 79.4694 3.8251C79.4066 3.438 79.2863 3.06275 79.1126 2.71208C78.7575 2.01082 78.1945 1.43965 77.5026 1.07862C77.1515 0.90007 76.7761 0.775438 76.3887 0.708826C75.979 0.640759 75.5649 0.604072 75.1498 0.599077L74.541 0.590505H6.02868L5.42713 0.598747C5.0082 0.604002 4.59025 0.641019 4.17679 0.709487C3.79329 0.775274 3.42174 0.899043 3.07458 1.07665C2.72922 1.25579 2.41375 1.48867 2.13968 1.76681C1.86531 2.04234 1.63677 2.36099 1.46292 2.71043C1.28642 3.06354 1.16424 3.44187 1.10062 3.83235C1.03224 4.25012 0.995346 4.67256 0.990262 5.09599C0.986362 5.23311 0.980469 5.69981 0.980469 5.69981V21.2927C0.980469 21.2927 0.986002 21.7667 0.990229 21.909C0.995538 22.3331 1.03264 22.7562 1.10123 23.1747C1.16474 23.5641 1.28682 23.9413 1.46323 24.2933C1.63771 24.6429 1.86753 24.9614 2.14357 25.2359C2.41567 25.5137 2.73013 25.7454 3.0749 25.9221C3.42286 26.1003 3.79512 26.2249 4.1794 26.2919C4.59151 26.3597 5.00801 26.3965 5.42549 26.402Z" fill="#667381"/>
<path d="M17.0631 13.4252C17.0783 12.2344 17.6949 11.1345 18.6968 10.5108C18.0619 9.59257 17.0364 9.03128 15.9299 8.99623C14.7658 8.8725 13.6372 9.70155 13.0439 9.70155C12.4392 9.70155 11.5258 9.00852 10.5423 9.029C9.24817 9.07134 8.07097 9.79824 7.44136 10.9438C6.10062 13.2941 7.10069 16.7484 8.38503 18.6482C9.02762 19.5785 9.77861 20.6177 10.7613 20.5809C11.7229 20.5405 12.082 19.96 13.2428 19.96C14.3927 19.96 14.7297 20.5809 15.7323 20.5574C16.7641 20.5405 17.4142 19.623 18.0343 18.6839C18.496 18.021 18.8512 17.2884 19.0869 16.5131C17.8614 15.9883 17.0646 14.7725 17.0631 13.4252Z" fill="#667381"/>
<path d="M15.1692 7.74681C15.7318 7.06298 16.009 6.18404 15.9418 5.29663C15.0823 5.38804 14.2883 5.80397 13.7181 6.46156C13.1551 7.11036 12.8699 7.95917 12.9252 8.82102C13.7963 8.8301 14.6233 8.43418 15.1692 7.74681Z" fill="#667381"/>
<path d="M28.5996 18.3192H25.444L24.6862 20.5848H23.3496L26.3385 12.2026H27.7272L30.7161 20.5848H29.3568L28.5996 18.3192ZM25.7708 17.2737H28.2722L27.0391 13.5968H27.0046L25.7708 17.2737Z" fill="#667381"/>
<path d="M37.1714 17.5295C37.1714 19.4286 36.1675 20.6487 34.6525 20.6487C33.8695 20.6902 33.1318 20.2749 32.7534 19.5795H32.7248V22.6065H31.4858V14.4735H32.6851V15.49H32.7078C33.1031 14.7989 33.8415 14.3838 34.6297 14.4096C36.1616 14.4096 37.1714 15.6357 37.1714 17.5295ZM35.898 17.5295C35.898 16.2922 35.2665 15.4788 34.3029 15.4788C33.3563 15.4788 32.7196 16.3093 32.7196 17.5295C32.7196 18.7608 33.3563 19.5855 34.3029 19.5855C35.2665 19.5855 35.898 18.778 35.898 17.5295Z" fill="#667381"/>
<path d="M43.8148 17.5295C43.8148 19.4286 42.8106 20.6487 41.2956 20.6487C40.5125 20.6902 39.7749 20.2749 39.3965 19.5795H39.3678V22.6065H38.1289V14.4735H39.3281V15.49H39.3509C39.7461 14.7989 40.4845 14.3838 41.2728 14.4096C42.8047 14.4096 43.8148 15.6357 43.8148 17.5295ZM42.541 17.5295C42.541 16.2922 41.9095 15.4788 40.946 15.4788C39.9994 15.4788 39.3627 16.3093 39.3627 17.5295C39.3627 18.7608 39.9994 19.5855 40.946 19.5855C41.9095 19.5855 42.541 18.778 42.541 17.5295Z" fill="#667381"/>
<path d="M48.2048 18.2493C48.2966 19.0805 49.0941 19.6263 50.184 19.6263C51.2282 19.6263 51.9795 19.0805 51.9795 18.331C51.9795 17.6804 51.5264 17.2908 50.4535 17.0239L49.3806 16.7622C47.8604 16.3904 47.1547 15.6706 47.1547 14.5025C47.1547 13.0563 48.3995 12.0629 50.1664 12.0629C51.9164 12.0629 53.1156 13.0563 53.156 14.5025H51.9053C51.8304 13.666 51.1475 13.1611 50.1494 13.1611C49.1514 13.1611 48.4685 13.6719 48.4685 14.4155C48.4685 15.0081 48.9047 15.3568 49.9717 15.6237L50.8838 15.8505C52.5824 16.2572 53.2875 16.948 53.2875 18.1741C53.2875 19.7423 52.0544 20.7245 50.0921 20.7245C48.2562 20.7245 47.0166 19.7654 46.9365 18.2492L48.2048 18.2493Z" fill="#667381"/>
<path d="M55.9627 13.0273V14.4736H57.1105V15.467H55.9627V18.836C55.9627 19.3594 56.1925 19.6033 56.6971 19.6033C56.8334 19.6009 56.9694 19.5912 57.1047 19.5743V20.5617C56.8778 20.6047 56.6472 20.6241 56.4165 20.6198C55.1945 20.6198 54.7179 20.155 54.7179 18.9698V15.467H53.8403V14.4736H54.7179V13.0273H55.9627Z" fill="#667381"/>
<path d="M57.7744 17.5295C57.7744 15.6067 58.8929 14.3984 60.637 14.3984C62.387 14.3984 63.5003 15.6067 63.5003 17.5295C63.5003 19.4576 62.3929 20.6606 60.637 20.6606C58.8818 20.6606 57.7744 19.4576 57.7744 17.5295ZM62.238 17.5295C62.238 16.2105 61.6409 15.432 60.637 15.432C59.6331 15.432 59.0361 16.2165 59.0361 17.5295C59.0361 18.8538 59.6331 19.6264 60.637 19.6264C61.6409 19.6264 62.238 18.8538 62.238 17.5295Z" fill="#667381"/>
<path d="M64.522 14.4735H65.7036V15.5136H65.7323C65.8971 14.844 66.503 14.3832 67.1841 14.4095C67.3269 14.409 67.4693 14.4247 67.6086 14.4563V15.6297C67.4283 15.5739 67.2403 15.5483 67.0519 15.5539C66.6877 15.5389 66.3352 15.6859 66.087 15.9562C65.8388 16.2265 65.7197 16.5932 65.7609 16.9599V20.5847H64.522V14.4735Z" fill="#667381"/>
<path d="M73.3206 18.7899C73.154 19.8993 72.0869 20.6606 70.7217 20.6606C68.9658 20.6606 67.876 19.4695 67.876 17.5585C67.876 15.6417 68.9717 14.3984 70.6696 14.3984C72.3395 14.3984 73.3896 15.5599 73.3896 17.4129V17.8427H69.1266V17.9185C69.0868 18.3734 69.242 18.8238 69.5526 19.155C69.8633 19.4862 70.2995 19.6663 70.7503 19.6495C71.3516 19.7065 71.9184 19.3569 72.1442 18.7899L73.3206 18.7899ZM69.1325 16.9659H72.1501C72.1725 16.5571 72.0256 16.1573 71.7445 15.8629C71.4635 15.5685 71.0739 15.4061 70.6696 15.4149C70.2621 15.4124 69.8705 15.5749 69.5819 15.8661C69.2932 16.1574 69.1314 16.5533 69.1325 16.9659Z" fill="#667381"/>
<path d="M24.1792 9.9209V5.89331H25.7782C26.5256 5.89331 26.9748 6.27827 26.9748 6.8979C26.9751 7.31755 26.6836 7.67943 26.2775 7.7634V7.81086C26.7856 7.8352 27.1825 8.26423 27.1733 8.7792C27.1733 9.48814 26.6636 9.9209 25.814 9.9209H24.1792ZM24.797 7.59858H25.5301C26.0763 7.59858 26.3602 7.39489 26.3602 7.01257C26.3602 6.64112 26.0926 6.42359 25.6349 6.42359H24.797V7.59858ZM25.6903 9.39056C26.2469 9.39056 26.5418 9.16149 26.5418 8.73468C26.5418 8.31313 26.2358 8.09264 25.6545 8.09264H24.797V9.39056H25.6903Z" fill="#667381"/>
<path d="M27.8081 9.06132C27.8081 8.5142 28.2105 8.19879 28.9246 8.15396L29.7378 8.1065V7.84415C29.7378 7.52313 29.5282 7.34186 29.1232 7.34186C28.7925 7.34186 28.5633 7.46479 28.4976 7.67969H27.924C27.9845 7.15761 28.4696 6.82275 29.1506 6.82275C29.9032 6.82275 30.3276 7.2021 30.3276 7.84415V9.9209H29.7573V9.49375H29.7105C29.5167 9.80568 29.1723 9.98799 28.8088 9.97097C28.5539 9.99781 28.2998 9.91425 28.1091 9.74094C27.9185 9.56762 27.8091 9.32074 27.8081 9.06132ZM29.7378 8.8016V8.54749L29.0047 8.59495C28.5913 8.62297 28.4038 8.76535 28.4038 9.0333C28.4038 9.30686 28.6382 9.46605 28.9605 9.46605C29.1513 9.48561 29.3417 9.42593 29.4883 9.30068C29.6348 9.17542 29.7248 8.99532 29.7378 8.8016Z" fill="#667381"/>
<path d="M31.1779 5.98264C31.1686 5.82367 31.256 5.67501 31.3984 5.60754C31.5409 5.54006 31.7096 5.56743 31.8241 5.67659C31.9387 5.78575 31.9758 5.95461 31.9179 6.10267C31.86 6.25073 31.7187 6.34802 31.5614 6.34815C31.4621 6.35328 31.3651 6.31717 31.2927 6.24818C31.2203 6.17919 31.1789 6.08329 31.1779 5.98264ZM31.2658 6.88143H31.8563V9.92091H31.2658L31.2658 6.88143Z" fill="#667381"/>
<path d="M33.8893 8.84352L33.2331 9.92095H32.5827L33.5781 8.40813L32.5742 6.88147H33.2663L33.9115 7.9533H33.9583L34.5977 6.88147H35.2565L34.2669 8.38308L35.2676 9.92095H34.5872L33.9336 8.84352H33.8893Z" fill="#667381"/>
<path d="M35.7905 9.06132C35.7905 8.5142 36.1929 8.19879 36.9071 8.15396L37.7202 8.1065V7.84415C37.7202 7.52313 37.5106 7.34186 37.1056 7.34186C36.7749 7.34186 36.5457 7.46479 36.48 7.67969H35.9064C35.967 7.15761 36.452 6.82275 37.133 6.82275C37.8856 6.82275 38.3101 7.2021 38.3101 7.84415V9.9209H37.7398V9.49375H37.6929C37.4992 9.80568 37.1547 9.98799 36.7912 9.97097C36.5363 9.99781 36.2822 9.91425 36.0915 9.74094C35.9009 9.56762 35.7915 9.32074 35.7905 9.06132ZM37.7202 8.8016V8.54749L36.9871 8.59495C36.5737 8.62297 36.3862 8.76535 36.3862 9.0333C36.3862 9.30686 36.6206 9.46605 36.9429 9.46605C37.1337 9.48561 37.3241 9.42593 37.4707 9.30068C37.6172 9.17542 37.7073 8.99532 37.7202 8.8016Z" fill="#667381"/>
<path d="M39.2378 6.88141H39.8081V7.34745H39.8524C39.9834 7.01554 40.3107 6.80696 40.6629 6.83098C40.7517 6.82977 40.8403 6.83817 40.9272 6.85603V7.448C40.8185 7.42448 40.7077 7.41233 40.5965 7.41175C40.3989 7.39378 40.203 7.46114 40.0571 7.59721C39.9112 7.73329 39.8288 7.92543 39.8302 8.1263V9.92091H39.2378V6.88141Z" fill="#667381"/>
<path d="M43.2104 6.88138H43.7811V7.36423H43.8254C43.9793 7.00873 44.3391 6.79126 44.7212 6.82271C45.0171 6.80019 45.307 6.91511 45.5092 7.13504C45.7113 7.35496 45.8037 7.65601 45.7603 7.9532V9.92083H45.1678V8.10383C45.1678 7.61538 44.9582 7.37247 44.5201 7.37247C44.3194 7.36301 44.1246 7.44275 43.9868 7.5908C43.849 7.73886 43.782 7.94044 43.8033 8.14272V9.92086H43.2105L43.2104 6.88138Z" fill="#667381"/>
<path d="M46.5059 9.06132C46.5059 8.5142 46.9082 8.19879 47.6224 8.15396L48.4355 8.1065V7.84415C48.4355 7.52313 48.2259 7.34186 47.821 7.34186C47.4902 7.34186 47.2611 7.46479 47.1953 7.67969H46.6217C46.6823 7.15761 47.1673 6.82275 47.8483 6.82275C48.6009 6.82275 49.0254 7.2021 49.0254 7.84415V9.9209H48.4551V9.49375H48.4082C48.2145 9.80568 47.87 9.98799 47.5065 9.97097C47.2517 9.99781 46.9975 9.91425 46.8069 9.74094C46.6162 9.56762 46.5069 9.32074 46.5059 9.06132ZM48.4356 8.8016V8.54749L47.7025 8.59495C47.2891 8.62297 47.1016 8.76535 47.1016 9.0333C47.1016 9.30686 47.3359 9.46605 47.6582 9.46605C47.849 9.48561 48.0395 9.42593 48.186 9.30068C48.3325 9.17543 48.4226 8.99532 48.4356 8.8016Z" fill="#667381"/>
</g>
<defs>
<clipPath id="clip0_5951_11900">
<rect width="80" height="27" fill="white" transform="translate(0.398438)"/>
</clipPath>
</defs>
</svg>
