<svg width="177" height="27" viewBox="0 0 177 27" fill="none" xmlns="http://www.w3.org/2000/svg">
<g clip-path="url(#clip0_5951_11899)">
<path fill-rule="evenodd" clip-rule="evenodd" d="M6.75489 -0.00012207H73.8216C74.0612 -0.00012207 74.3047 -0.00012207 74.5443 0.00122793C74.7101 0.00230236 74.8794 0.00513534 75.0465 0.00793163C75.0841 0.008561 75.1216 0.0091885 75.1589 0.00979368C75.6057 0.0148209 76.0515 0.0547101 76.4922 0.129107C76.9347 0.205328 77.3635 0.347974 77.7644 0.552332C78.5662 0.969283 79.2187 1.63022 79.6302 2.4422C79.8313 2.84678 79.9705 3.27998 80.043 3.72694C80.1173 4.17365 80.1587 4.62535 80.1667 5.07829C80.1693 5.28527 80.1693 5.49291 80.1693 5.69989C80.1745 5.94409 80.1745 6.18894 80.1745 6.43577V6.43685V20.5637V20.5648C80.1745 20.8136 80.1745 21.0572 80.1693 21.302C80.1693 21.5116 80.1693 21.7146 80.1667 21.9243C80.1587 22.3772 80.1173 22.8289 80.043 23.2756C79.9707 23.7228 79.8315 24.1563 79.6302 24.561C79.4257 24.9638 79.1599 25.3315 78.8425 25.6506C78.5274 25.9725 78.1634 26.2411 77.7644 26.4463C77.3635 26.6512 76.9347 26.7947 76.4922 26.8721C76.0514 26.9458 75.6057 26.9857 75.1589 26.9914C74.9558 26.996 74.7474 26.9986 74.5443 26.9986C74.305 27 74.0619 27 73.8226 27H73.8216H6.75489H6.75386C6.50976 27 6.26854 27 6.02507 26.9986C5.82097 26.9986 5.6185 26.996 5.41244 26.9914C4.96481 26.9854 4.51825 26.9455 4.0765 26.8721C3.6354 26.7952 3.20822 26.6517 2.80925 26.4463C2.40981 26.2413 2.04547 25.9726 1.73015 25.6506C1.41192 25.3328 1.14665 24.9648 0.944671 24.561C0.741843 24.1565 0.601328 23.7231 0.528004 23.2756C0.45378 22.829 0.413838 22.3772 0.408538 21.9243C0.404311 21.7811 0.402667 21.6409 0.40101 21.4997C0.400241 21.4342 0.39947 21.3684 0.398438 21.302V5.69989C0.399483 5.63355 0.40026 5.56713 0.401037 5.50069C0.402685 5.35986 0.404334 5.21893 0.408538 5.07831C0.413836 4.62542 0.453778 4.17362 0.528004 3.72696C0.601531 3.27975 0.742038 2.84651 0.944671 2.44222C1.14675 2.03713 1.41197 1.66765 1.73015 1.34799C2.04667 1.02743 2.41077 0.758984 2.80925 0.552392C3.20822 0.347534 3.63545 0.20485 4.0765 0.129167C4.51818 0.0550972 4.96478 0.0152219 5.41244 0.00988818C5.45522 0.00920293 5.49784 0.00849091 5.54036 0.0077807C5.70264 0.00506993 5.86334 0.00238541 6.02507 0.00131568C6.26889 -0.00012207 6.51042 -0.00012207 6.75489 -0.00012207ZM5.42549 26.402C5.62702 26.4066 5.82523 26.4093 6.02835 26.4093L73.8216 26.4106L74.5443 26.4093C74.7428 26.4093 74.9473 26.4066 75.1426 26.402C75.5601 26.3969 75.9766 26.3601 76.3887 26.2919C76.7757 26.2255 77.1506 26.1004 77.5007 25.9208C77.8463 25.743 78.1613 25.5099 78.4336 25.2306C78.7065 24.9568 78.935 24.6412 79.1107 24.2953C79.2871 23.9405 79.4085 23.5603 79.4707 23.168C79.5388 22.7544 79.5769 22.3362 79.5846 21.9169C79.5872 21.71 79.5872 21.5089 79.5872 21.2894C79.5925 21.0481 79.5925 20.8088 79.5925 20.5636V6.43677C79.5925 6.19386 79.5925 5.95293 79.5872 5.69981C79.5872 5.49546 79.5872 5.29013 79.5853 5.09897C79.5774 4.67205 79.5386 4.2463 79.4694 3.8251C79.4066 3.438 79.2863 3.06275 79.1126 2.71208C78.7575 2.01082 78.1945 1.43965 77.5026 1.07862C77.1515 0.90007 76.7761 0.775438 76.3887 0.708826C75.979 0.640759 75.5649 0.604072 75.1498 0.599077L74.541 0.590505H6.02868L5.42713 0.598747C5.0082 0.604002 4.59025 0.641019 4.17679 0.709487C3.79329 0.775274 3.42174 0.899043 3.07458 1.07665C2.72922 1.25579 2.41375 1.48867 2.13968 1.76681C1.86531 2.04234 1.63677 2.36099 1.46292 2.71043C1.28642 3.06354 1.16424 3.44187 1.10062 3.83235C1.03224 4.25012 0.995346 4.67256 0.990262 5.09599C0.986362 5.23311 0.980469 5.69981 0.980469 5.69981V21.2927C0.980469 21.2927 0.986002 21.7667 0.990229 21.909C0.995538 22.3331 1.03264 22.7562 1.10123 23.1747C1.16474 23.5641 1.28682 23.9413 1.46323 24.2933C1.63771 24.6429 1.86753 24.9614 2.14357 25.2359C2.41567 25.5137 2.73013 25.7454 3.0749 25.9221C3.42286 26.1003 3.79512 26.2249 4.1794 26.2919C4.59151 26.3597 5.00801 26.3965 5.42549 26.402Z" fill="#667381"/>
<path d="M17.0631 13.4252C17.0783 12.2344 17.6949 11.1345 18.6968 10.5108C18.0619 9.59257 17.0364 9.03128 15.9299 8.99623C14.7658 8.8725 13.6372 9.70155 13.0439 9.70155C12.4392 9.70155 11.5258 9.00852 10.5423 9.029C9.24817 9.07134 8.07097 9.79824 7.44136 10.9438C6.10062 13.2941 7.10069 16.7484 8.38503 18.6482C9.02762 19.5785 9.77861 20.6177 10.7613 20.5809C11.7229 20.5405 12.082 19.96 13.2428 19.96C14.3927 19.96 14.7297 20.5809 15.7323 20.5574C16.7641 20.5405 17.4142 19.623 18.0343 18.6839C18.496 18.021 18.8512 17.2884 19.0869 16.5131C17.8614 15.9883 17.0646 14.7725 17.0631 13.4252Z" fill="#667381"/>
<path d="M15.1692 7.74681C15.7318 7.06298 16.009 6.18404 15.9418 5.29663C15.0823 5.38804 14.2883 5.80397 13.7181 6.46156C13.1551 7.11036 12.8699 7.95917 12.9252 8.82102C13.7963 8.8301 14.6233 8.43418 15.1692 7.74681Z" fill="#667381"/>
<path d="M28.5996 18.3192H25.444L24.6862 20.5848H23.3496L26.3385 12.2026H27.7272L30.7161 20.5848H29.3568L28.5996 18.3192ZM25.7708 17.2737H28.2722L27.0391 13.5968H27.0046L25.7708 17.2737Z" fill="#667381"/>
<path d="M37.1714 17.5295C37.1714 19.4286 36.1675 20.6487 34.6525 20.6487C33.8695 20.6902 33.1318 20.2749 32.7534 19.5795H32.7248V22.6065H31.4858V14.4735H32.6851V15.49H32.7078C33.1031 14.7989 33.8415 14.3838 34.6297 14.4096C36.1616 14.4096 37.1714 15.6357 37.1714 17.5295ZM35.898 17.5295C35.898 16.2922 35.2665 15.4788 34.3029 15.4788C33.3563 15.4788 32.7196 16.3093 32.7196 17.5295C32.7196 18.7608 33.3563 19.5855 34.3029 19.5855C35.2665 19.5855 35.898 18.778 35.898 17.5295Z" fill="#667381"/>
<path d="M43.8148 17.5295C43.8148 19.4286 42.8106 20.6487 41.2956 20.6487C40.5125 20.6902 39.7749 20.2749 39.3965 19.5795H39.3678V22.6065H38.1289V14.4735H39.3281V15.49H39.3509C39.7461 14.7989 40.4845 14.3838 41.2728 14.4096C42.8047 14.4096 43.8148 15.6357 43.8148 17.5295ZM42.541 17.5295C42.541 16.2922 41.9095 15.4788 40.946 15.4788C39.9994 15.4788 39.3627 16.3093 39.3627 17.5295C39.3627 18.7608 39.9994 19.5855 40.946 19.5855C41.9095 19.5855 42.541 18.778 42.541 17.5295Z" fill="#667381"/>
<path d="M48.2048 18.2493C48.2966 19.0805 49.0941 19.6263 50.184 19.6263C51.2282 19.6263 51.9795 19.0805 51.9795 18.331C51.9795 17.6804 51.5264 17.2908 50.4535 17.0239L49.3806 16.7622C47.8604 16.3904 47.1547 15.6706 47.1547 14.5025C47.1547 13.0563 48.3995 12.0629 50.1664 12.0629C51.9164 12.0629 53.1156 13.0563 53.156 14.5025H51.9053C51.8304 13.666 51.1475 13.1611 50.1494 13.1611C49.1514 13.1611 48.4685 13.6719 48.4685 14.4155C48.4685 15.0081 48.9047 15.3568 49.9717 15.6237L50.8838 15.8505C52.5824 16.2572 53.2875 16.948 53.2875 18.1741C53.2875 19.7423 52.0544 20.7245 50.0921 20.7245C48.2562 20.7245 47.0166 19.7654 46.9365 18.2492L48.2048 18.2493Z" fill="#667381"/>
<path d="M55.9627 13.0273V14.4736H57.1105V15.467H55.9627V18.836C55.9627 19.3594 56.1925 19.6033 56.6971 19.6033C56.8334 19.6009 56.9694 19.5912 57.1047 19.5743V20.5617C56.8778 20.6047 56.6472 20.6241 56.4165 20.6198C55.1945 20.6198 54.7179 20.155 54.7179 18.9698V15.467H53.8403V14.4736H54.7179V13.0273H55.9627Z" fill="#667381"/>
<path d="M57.7744 17.5295C57.7744 15.6067 58.8929 14.3984 60.637 14.3984C62.387 14.3984 63.5003 15.6067 63.5003 17.5295C63.5003 19.4576 62.3929 20.6606 60.637 20.6606C58.8818 20.6606 57.7744 19.4576 57.7744 17.5295ZM62.238 17.5295C62.238 16.2105 61.6409 15.432 60.637 15.432C59.6331 15.432 59.0361 16.2165 59.0361 17.5295C59.0361 18.8538 59.6331 19.6264 60.637 19.6264C61.6409 19.6264 62.238 18.8538 62.238 17.5295Z" fill="#667381"/>
<path d="M64.522 14.4735H65.7036V15.5136H65.7323C65.8971 14.844 66.503 14.3832 67.1841 14.4095C67.3269 14.409 67.4693 14.4247 67.6086 14.4563V15.6297C67.4283 15.5739 67.2403 15.5483 67.0519 15.5539C66.6877 15.5389 66.3352 15.6859 66.087 15.9562C65.8388 16.2265 65.7197 16.5932 65.7609 16.9599V20.5847H64.522V14.4735Z" fill="#667381"/>
<path d="M73.3206 18.7899C73.154 19.8993 72.0869 20.6606 70.7217 20.6606C68.9658 20.6606 67.876 19.4695 67.876 17.5585C67.876 15.6417 68.9717 14.3984 70.6696 14.3984C72.3395 14.3984 73.3896 15.5599 73.3896 17.4129V17.8427H69.1266V17.9185C69.0868 18.3734 69.242 18.8238 69.5526 19.155C69.8633 19.4862 70.2995 19.6663 70.7503 19.6495C71.3516 19.7065 71.9184 19.3569 72.1442 18.7899L73.3206 18.7899ZM69.1325 16.9659H72.1501C72.1725 16.5571 72.0256 16.1573 71.7445 15.8629C71.4635 15.5685 71.0739 15.4061 70.6696 15.4149C70.2621 15.4124 69.8705 15.5749 69.5819 15.8661C69.2932 16.1574 69.1314 16.5533 69.1325 16.9659Z" fill="#667381"/>
<path d="M24.1792 9.9209V5.89331H25.7782C26.5256 5.89331 26.9748 6.27827 26.9748 6.8979C26.9751 7.31755 26.6836 7.67943 26.2775 7.7634V7.81086C26.7856 7.8352 27.1825 8.26423 27.1733 8.7792C27.1733 9.48814 26.6636 9.9209 25.814 9.9209H24.1792ZM24.797 7.59858H25.5301C26.0763 7.59858 26.3602 7.39489 26.3602 7.01257C26.3602 6.64112 26.0926 6.42359 25.6349 6.42359H24.797V7.59858ZM25.6903 9.39056C26.2469 9.39056 26.5418 9.16149 26.5418 8.73468C26.5418 8.31313 26.2358 8.09264 25.6545 8.09264H24.797V9.39056H25.6903Z" fill="#667381"/>
<path d="M27.8081 9.06132C27.8081 8.5142 28.2105 8.19879 28.9246 8.15396L29.7378 8.1065V7.84415C29.7378 7.52313 29.5282 7.34186 29.1232 7.34186C28.7925 7.34186 28.5633 7.46479 28.4976 7.67969H27.924C27.9845 7.15761 28.4696 6.82275 29.1506 6.82275C29.9032 6.82275 30.3276 7.2021 30.3276 7.84415V9.9209H29.7573V9.49375H29.7105C29.5167 9.80568 29.1723 9.98799 28.8088 9.97097C28.5539 9.99781 28.2998 9.91425 28.1091 9.74094C27.9185 9.56762 27.8091 9.32074 27.8081 9.06132ZM29.7378 8.8016V8.54749L29.0047 8.59495C28.5913 8.62297 28.4038 8.76535 28.4038 9.0333C28.4038 9.30686 28.6382 9.46605 28.9605 9.46605C29.1513 9.48561 29.3417 9.42593 29.4883 9.30068C29.6348 9.17542 29.7248 8.99532 29.7378 8.8016Z" fill="#667381"/>
<path d="M31.1779 5.98264C31.1686 5.82367 31.256 5.67501 31.3984 5.60754C31.5409 5.54006 31.7096 5.56743 31.8241 5.67659C31.9387 5.78575 31.9758 5.95461 31.9179 6.10267C31.86 6.25073 31.7187 6.34802 31.5614 6.34815C31.4621 6.35328 31.3651 6.31717 31.2927 6.24818C31.2203 6.17919 31.1789 6.08329 31.1779 5.98264ZM31.2658 6.88143H31.8563V9.92091H31.2658L31.2658 6.88143Z" fill="#667381"/>
<path d="M33.8893 8.84352L33.2331 9.92095H32.5827L33.5781 8.40813L32.5742 6.88147H33.2663L33.9115 7.9533H33.9583L34.5977 6.88147H35.2565L34.2669 8.38308L35.2676 9.92095H34.5872L33.9336 8.84352H33.8893Z" fill="#667381"/>
<path d="M35.7905 9.06132C35.7905 8.5142 36.1929 8.19879 36.9071 8.15396L37.7202 8.1065V7.84415C37.7202 7.52313 37.5106 7.34186 37.1056 7.34186C36.7749 7.34186 36.5457 7.46479 36.48 7.67969H35.9064C35.967 7.15761 36.452 6.82275 37.133 6.82275C37.8856 6.82275 38.3101 7.2021 38.3101 7.84415V9.9209H37.7398V9.49375H37.6929C37.4992 9.80568 37.1547 9.98799 36.7912 9.97097C36.5363 9.99781 36.2822 9.91425 36.0915 9.74094C35.9009 9.56762 35.7915 9.32074 35.7905 9.06132ZM37.7202 8.8016V8.54749L36.9871 8.59495C36.5737 8.62297 36.3862 8.76535 36.3862 9.0333C36.3862 9.30686 36.6206 9.46605 36.9429 9.46605C37.1337 9.48561 37.3241 9.42593 37.4707 9.30068C37.6172 9.17542 37.7073 8.99532 37.7202 8.8016Z" fill="#667381"/>
<path d="M39.2378 6.88141H39.8081V7.34745H39.8524C39.9834 7.01554 40.3107 6.80696 40.6629 6.83098C40.7517 6.82977 40.8403 6.83817 40.9272 6.85603V7.448C40.8185 7.42448 40.7077 7.41233 40.5965 7.41175C40.3989 7.39378 40.203 7.46114 40.0571 7.59721C39.9112 7.73329 39.8288 7.92543 39.8302 8.1263V9.92091H39.2378V6.88141Z" fill="#667381"/>
<path d="M43.2104 6.88138H43.7811V7.36423H43.8254C43.9793 7.00873 44.3391 6.79126 44.7212 6.82271C45.0171 6.80019 45.307 6.91511 45.5092 7.13504C45.7113 7.35496 45.8037 7.65601 45.7603 7.9532V9.92083H45.1678V8.10383C45.1678 7.61538 44.9582 7.37247 44.5201 7.37247C44.3194 7.36301 44.1246 7.44275 43.9868 7.5908C43.849 7.73886 43.782 7.94044 43.8033 8.14272V9.92086H43.2105L43.2104 6.88138Z" fill="#667381"/>
<path d="M46.5059 9.06132C46.5059 8.5142 46.9082 8.19879 47.6224 8.15396L48.4355 8.1065V7.84415C48.4355 7.52313 48.2259 7.34186 47.821 7.34186C47.4902 7.34186 47.2611 7.46479 47.1953 7.67969H46.6217C46.6823 7.15761 47.1673 6.82275 47.8483 6.82275C48.6009 6.82275 49.0254 7.2021 49.0254 7.84415V9.9209H48.4551V9.49375H48.4082C48.2145 9.80568 47.87 9.98799 47.5065 9.97097C47.2517 9.99781 46.9975 9.91425 46.8069 9.74094C46.6162 9.56762 46.5069 9.32074 46.5059 9.06132ZM48.4356 8.8016V8.54749L47.7025 8.59495C47.2891 8.62297 47.1016 8.76535 47.1016 9.0333C47.1016 9.30686 47.3359 9.46605 47.6582 9.46605C47.849 9.48561 48.0395 9.42593 48.186 9.30068C48.3325 9.17543 48.4226 8.99532 48.4356 8.8016Z" fill="#667381"/>
</g>
<g clip-path="url(#clip1_5951_11899)">
<path fill-rule="evenodd" clip-rule="evenodd" d="M102.755 0H169.822C170.061 0 170.305 0 170.544 0.00135C170.71 0.00242443 170.879 0.00525742 171.046 0.0080537C171.084 0.00868307 171.122 0.00931057 171.159 0.00991575C171.606 0.014943 172.051 0.0548321 172.492 0.129229C172.935 0.20545 173.363 0.348096 173.764 0.552454C174.566 0.969405 175.219 1.63035 175.63 2.44232C175.831 2.8469 175.97 3.2801 176.043 3.72706C176.117 4.17377 176.159 4.62547 176.167 5.07841C176.169 5.28539 176.169 5.49304 176.169 5.70002C176.174 5.94421 176.174 6.18907 176.174 6.43589V6.43698V20.5638V20.5649C176.174 20.8138 176.174 21.0573 176.169 21.3021C176.169 21.5117 176.169 21.7148 176.167 21.9244C176.159 22.3773 176.117 22.829 176.043 23.2757C175.971 23.7229 175.832 24.1564 175.63 24.5611C175.426 24.9639 175.16 25.3316 174.842 25.6508C174.527 25.9726 174.163 26.2413 173.764 26.4464C173.363 26.6513 172.935 26.7948 172.492 26.8722C172.051 26.946 171.606 26.9859 171.159 26.9915C170.956 26.9961 170.747 26.9987 170.544 26.9987C170.305 27.0001 170.062 27.0001 169.823 27.0001H169.822H102.755H102.754C102.51 27.0001 102.269 27.0001 102.025 26.9987C101.821 26.9987 101.618 26.9961 101.412 26.9915C100.965 26.9855 100.518 26.9457 100.077 26.8722C99.6354 26.7953 99.2082 26.6518 98.8093 26.4464C98.4098 26.2414 98.0455 25.9727 97.7302 25.6508C97.4119 25.3329 97.1467 24.9649 96.9447 24.5611C96.7418 24.1567 96.6013 23.7232 96.528 23.2757C96.4538 22.8291 96.4138 22.3773 96.4085 21.9244C96.4043 21.7812 96.4027 21.641 96.401 21.4998C96.4002 21.4343 96.3995 21.3685 96.3984 21.3021V5.70002C96.3995 5.63367 96.4003 5.56725 96.401 5.50081C96.4027 5.35998 96.4043 5.21905 96.4085 5.07844C96.4138 4.62554 96.4538 4.17374 96.528 3.72709C96.6015 3.27987 96.742 2.84664 96.9447 2.44235C97.1467 2.03725 97.412 1.66777 97.7302 1.34811C98.0467 1.02755 98.4108 0.759106 98.8093 0.552514C99.2082 0.347656 99.6355 0.204972 100.077 0.12929C100.518 0.0552192 100.965 0.015344 101.412 0.0100102C101.455 0.009325 101.498 0.00861298 101.54 0.00790277C101.703 0.005192 101.863 0.00250748 102.025 0.00143775C102.269 0 102.51 0 102.755 0ZM101.425 26.4022C101.627 26.4067 101.825 26.4094 102.028 26.4094L169.822 26.4107L170.544 26.4094C170.743 26.4094 170.947 26.4067 171.143 26.4022C171.56 26.397 171.977 26.3602 172.389 26.2921C172.776 26.2256 173.151 26.1005 173.501 25.9209C173.846 25.7431 174.161 25.5101 174.434 25.2308C174.706 24.957 174.935 24.6413 175.111 24.2954C175.287 23.9406 175.409 23.5604 175.471 23.1682C175.539 22.7545 175.577 22.3363 175.585 21.917C175.587 21.7101 175.587 21.509 175.587 21.2895C175.593 21.0483 175.593 20.809 175.593 20.5637V6.43689C175.593 6.19398 175.593 5.95306 175.587 5.69993C175.587 5.49558 175.587 5.29025 175.585 5.09909C175.577 4.67218 175.539 4.24642 175.469 3.82522C175.407 3.43812 175.286 3.06287 175.113 2.7122C174.757 2.01094 174.195 1.43977 173.503 1.07875C173.152 0.900193 172.776 0.77556 172.389 0.708948C171.979 0.640881 171.565 0.604194 171.15 0.5992L170.541 0.590627H102.029L101.427 0.598869C101.008 0.604124 100.59 0.641141 100.177 0.709609C99.7933 0.775396 99.4217 0.899165 99.0746 1.07677C98.7292 1.25591 98.4138 1.4888 98.1397 1.76694C97.8653 2.04246 97.6368 2.36111 97.4629 2.71055C97.2864 3.06366 97.1642 3.442 97.1006 3.83247C97.0322 4.25024 96.9953 4.67268 96.9903 5.09612C96.9864 5.23323 96.9805 5.69993 96.9805 5.69993V21.2928C96.9805 21.2928 96.986 21.7668 96.9902 21.9092C96.9955 22.3333 97.0326 22.7564 97.1012 23.1748C97.1647 23.5642 97.2868 23.9414 97.4632 24.2934C97.6377 24.6431 97.8675 24.9615 98.1436 25.236C98.4157 25.5138 98.7301 25.7455 99.0749 25.9222C99.4229 26.1004 99.7951 26.2251 100.179 26.2921C100.592 26.3598 101.008 26.3966 101.425 26.4022Z" fill="#667381"/>
<path fill-rule="evenodd" clip-rule="evenodd" d="M109.453 13.3314L111.401 11.3596L103.022 6.53872C102.854 6.44228 102.71 6.39494 102.589 6.38135L109.453 13.3314ZM112.058 11.7376L109.925 13.8981L112.058 16.0583L114.791 14.4863C115.151 14.2787 115.254 14.0527 115.254 13.8978C115.254 13.7429 115.151 13.5168 114.791 13.3089L112.058 11.7376ZM108.982 13.8981L102.016 6.84502C101.997 6.92939 101.986 7.02768 101.986 7.14127V20.655C101.986 20.7686 101.997 20.8669 102.016 20.9513L108.982 13.8981ZM102.589 21.4149C102.71 21.4013 102.854 21.354 103.022 21.2576L111.4 16.4371L109.454 14.4647L102.589 21.4149Z" fill="#667381"/>
<path fill-rule="evenodd" clip-rule="evenodd" d="M160.217 20.0134H161.344V12.3686H160.217V20.0134ZM170.368 15.1223L169.076 18.4369H169.038L167.697 15.1223H166.483L168.494 19.7547L167.347 22.3318H168.523L171.622 15.1223H170.368ZM163.977 19.145C163.607 19.145 163.093 18.9585 163.093 18.4962C163.093 17.9061 163.734 17.6798 164.287 17.6798C164.783 17.6798 165.016 17.788 165.317 17.9354C165.23 18.6436 164.628 19.145 163.977 19.145ZM164.113 14.9554C163.297 14.9554 162.452 15.3193 162.102 16.1259L163.102 16.5484C163.316 16.1259 163.714 15.9877 164.132 15.9877C164.715 15.9877 165.308 16.3417 165.317 16.9716V17.0499C165.113 16.9319 164.676 16.7551 164.142 16.7551C163.064 16.7551 161.966 17.3551 161.966 18.476C161.966 19.4991 162.85 20.1584 163.841 20.1584C164.599 20.1584 165.016 19.8141 165.279 19.4104H165.317V20.0006H166.405V17.0701C166.405 15.7125 165.405 14.9554 164.113 14.9554ZM157.148 16.0531H155.545V13.4327H157.148C157.99 13.4327 158.469 14.139 158.469 14.7426C158.469 15.3352 157.99 16.0531 157.148 16.0531ZM157.119 12.3686H154.418V20.0134H155.545V17.1172H157.119C158.368 17.1172 159.596 16.2011 159.596 14.7426C159.596 13.2841 158.368 12.3686 157.119 12.3686ZM142.393 19.1463C141.614 19.1463 140.963 18.4864 140.963 17.5801C140.963 16.664 141.614 15.9938 142.393 15.9938C143.162 15.9938 143.765 16.664 143.765 17.5801C143.765 18.4864 143.162 19.1463 142.393 19.1463ZM143.687 15.5504H143.648C143.395 15.2453 142.909 14.9695 142.296 14.9695C141.011 14.9695 139.834 16.1118 139.834 17.5801C139.834 19.038 141.011 20.1712 142.296 20.1712C142.909 20.1712 143.395 19.8954 143.648 19.5798H143.687V19.9541C143.687 20.9497 143.162 21.4817 142.315 21.4817C141.624 21.4817 141.196 20.979 141.021 20.5552L140.038 20.9693C140.32 21.6591 141.07 22.5061 142.315 22.5061C143.638 22.5061 144.758 21.7178 144.758 19.7969V15.1266H143.687V15.5504ZM145.536 20.0134H146.665V12.368H145.536V20.0134ZM148.328 17.4914C148.299 16.4867 149.097 15.9742 149.671 15.9742C150.119 15.9742 150.498 16.2005 150.625 16.5258L148.328 17.4914ZM151.831 16.6243C151.618 16.0433 150.965 14.9695 149.632 14.9695C148.309 14.9695 147.21 16.0231 147.21 17.5703C147.21 19.0282 148.299 20.1712 149.759 20.1712C150.936 20.1712 151.618 19.4422 151.9 19.0184L151.024 18.4271C150.732 18.8607 150.333 19.1463 149.759 19.1463C149.185 19.1463 148.776 18.8802 148.513 18.3586L151.948 16.9203L151.831 16.6243ZM124.466 15.7675V16.8707H127.073C126.995 17.4914 126.791 17.9446 126.48 18.2601C126.1 18.6442 125.507 19.0674 124.466 19.0674C122.86 19.0674 121.605 17.7575 121.605 16.132C121.605 14.5059 122.86 13.196 124.466 13.196C125.332 13.196 125.964 13.5409 126.431 13.9843L127.2 13.2058C126.548 12.5753 125.682 12.0922 124.466 12.0922C122.267 12.0922 120.418 13.9054 120.418 16.132C120.418 18.3586 122.267 20.1712 124.466 20.1712C125.653 20.1712 126.548 19.7774 127.248 19.038C127.968 18.3091 128.193 17.2847 128.193 16.4567C128.193 16.2005 128.173 15.9644 128.134 15.7675H124.466ZM131.157 19.1463C130.379 19.1463 129.707 18.4962 129.707 17.5703C129.707 16.6341 130.379 15.9938 131.157 15.9938C131.935 15.9938 132.607 16.6341 132.607 17.5703C132.607 18.4962 131.935 19.1463 131.157 19.1463ZM131.157 14.9695C129.736 14.9695 128.578 16.0629 128.578 17.5703C128.578 19.0674 129.736 20.1712 131.157 20.1712C132.578 20.1712 133.736 19.0674 133.736 17.5703C133.736 16.0629 132.578 14.9695 131.157 14.9695ZM136.782 19.1463C136.004 19.1463 135.332 18.4962 135.332 17.5703C135.332 16.6341 136.004 15.9938 136.782 15.9938C137.561 15.9938 138.232 16.6341 138.232 17.5703C138.232 18.4962 137.561 19.1463 136.782 19.1463ZM136.782 14.9695C135.362 14.9695 134.204 16.0629 134.204 17.5703C134.204 19.0674 135.362 20.1712 136.782 20.1712C138.203 20.1712 139.361 19.0674 139.361 17.5703C139.361 16.0629 138.203 14.9695 136.782 14.9695Z" fill="#667381"/>
<path fill-rule="evenodd" clip-rule="evenodd" d="M121.062 9.16652H121.705C122.123 9.16652 122.455 9.04544 122.699 8.80205C122.944 8.55988 123.066 8.21986 123.066 7.78261C123.066 7.34903 122.944 7.00963 122.699 6.76501C122.455 6.52162 122.123 6.3987 121.705 6.3987H121.062V9.16652ZM120.597 9.61723V5.948H121.705C122.262 5.948 122.707 6.11801 123.042 6.45802C123.375 6.79804 123.542 7.23896 123.542 7.78261C123.542 8.32566 123.375 8.76719 123.042 9.10721C122.707 9.44722 122.262 9.61723 121.705 9.61723H120.597Z" fill="#667381"/>
<path fill-rule="evenodd" clip-rule="evenodd" d="M121.062 9.16652V9.22768H121.705C122.134 9.22829 122.484 9.1017 122.741 8.84608C123 8.59045 123.127 8.23087 123.127 7.78261C123.127 7.33741 123 6.97905 122.742 6.72159C122.485 6.46475 122.134 6.33755 121.705 6.33755H121.001V9.22768H121.062V9.16652H121.122V6.45986H121.705C122.112 6.46047 122.425 6.57788 122.657 6.80904C122.888 7.04021 123.005 7.36004 123.006 7.78261C123.005 8.20886 122.888 8.5293 122.657 8.75863C122.425 8.98857 122.112 9.10476 121.705 9.10537H121.062V9.16652H121.122H121.062ZM120.597 9.61723H120.657V6.00915H121.705C122.25 6.00976 122.676 6.17366 122.999 6.50083C123.321 6.82922 123.481 7.2518 123.482 7.78261C123.481 8.31343 123.321 8.736 122.999 9.0644C122.676 9.39157 122.25 9.55546 121.705 9.55607H120.597V9.61723H120.657H120.597V9.67838H121.705C122.273 9.67899 122.738 9.50348 123.084 9.15062C123.43 8.79899 123.603 8.33789 123.603 7.78261C123.603 7.22672 123.43 6.76624 123.084 6.41521C122.738 6.06174 122.273 5.88623 121.705 5.88684H120.536V9.67838H120.597V9.61723Z" fill="#667381"/>
<path fill-rule="evenodd" clip-rule="evenodd" d="M124.195 9.61723H124.661V5.948H124.195V9.61723Z" fill="#667381"/>
<path fill-rule="evenodd" clip-rule="evenodd" d="M124.195 9.61722H124.256V6.00915H124.6V9.55607H124.195V9.61722H124.256H124.195V9.67838H124.721V5.88684H124.135V9.67838H124.195V9.61722Z" fill="#667381"/>
<path fill-rule="evenodd" clip-rule="evenodd" d="M126.513 9.69921C126.25 9.69921 125.993 9.61237 125.742 9.43809C125.49 9.2638 125.325 9.01918 125.248 8.70485L125.673 8.53117C125.724 8.73237 125.827 8.90238 125.984 9.04059C126.142 9.17879 126.318 9.2479 126.513 9.2479C126.716 9.2479 126.889 9.19469 127.032 9.08706C127.175 8.97943 127.247 8.83327 127.247 8.64859C127.247 8.44372 127.175 8.28595 127.032 8.17465C126.889 8.06335 126.662 7.96061 126.352 7.8646C126.031 7.76247 125.788 7.62977 125.623 7.4671C125.458 7.30504 125.374 7.09773 125.374 6.84455C125.374 6.58159 125.478 6.35287 125.684 6.1584C125.889 5.96332 126.158 5.86609 126.488 5.86609C126.795 5.86609 127.045 5.94375 127.237 6.09908C127.429 6.25503 127.554 6.42442 127.611 6.60911L127.187 6.78829C127.156 6.67271 127.081 6.56447 126.962 6.4654C126.842 6.36694 126.687 6.3174 126.498 6.3174C126.319 6.3174 126.167 6.36755 126.04 6.46845C125.914 6.56936 125.85 6.69472 125.85 6.84455C125.85 6.98153 125.909 7.0965 126.025 7.19068C126.142 7.28486 126.313 7.36925 126.539 7.44447C126.718 7.50257 126.867 7.55883 126.987 7.61387C127.107 7.66829 127.228 7.74107 127.351 7.83157C127.474 7.92208 127.567 8.0346 127.629 8.16975C127.692 8.3049 127.723 8.46085 127.723 8.63819C127.723 8.81615 127.687 8.97515 127.614 9.11519C127.542 9.25523 127.445 9.36592 127.326 9.44848C127.206 9.52982 127.077 9.59219 126.939 9.635C126.8 9.67781 126.658 9.69921 126.513 9.69921Z" fill="#667381"/>
<path fill-rule="evenodd" clip-rule="evenodd" d="M126.513 9.69921V9.63806C126.263 9.63806 126.019 9.55611 125.776 9.38794C125.536 9.22099 125.382 8.99228 125.307 8.69018L125.248 8.70485L125.27 8.76173L125.696 8.58744L125.673 8.53118L125.615 8.54585C125.668 8.75928 125.779 8.94091 125.944 9.08706C126.111 9.23322 126.303 9.30966 126.513 9.30966C126.726 9.30966 126.914 9.25218 127.068 9.13599C127.226 9.01918 127.309 8.84918 127.308 8.64859C127.309 8.42966 127.228 8.24803 127.069 8.12634C126.916 8.0077 126.683 7.90313 126.369 7.80589H126.37C126.055 7.70621 125.82 7.57656 125.665 7.42368C125.511 7.27202 125.435 7.08428 125.435 6.84455C125.435 6.5981 125.529 6.38896 125.725 6.20305C125.918 6.0202 126.169 5.92725 126.488 5.92725C126.786 5.92725 127.02 6.00185 127.2 6.14679C127.385 6.29723 127.501 6.45745 127.554 6.62746L127.611 6.60911L127.588 6.55285L127.164 6.73203L127.187 6.78829L127.245 6.77239C127.21 6.64152 127.126 6.52288 127 6.41831C126.868 6.30885 126.697 6.25564 126.498 6.25625C126.308 6.25564 126.14 6.31007 126.003 6.42015C125.864 6.529 125.789 6.67699 125.79 6.84455C125.789 6.99988 125.859 7.13687 125.987 7.23838V7.239C126.113 7.33929 126.29 7.42613 126.52 7.50257C126.698 7.56005 126.845 7.6157 126.962 7.66952C127.078 7.7215 127.195 7.79244 127.315 7.8805V7.88111C127.431 7.9655 127.516 8.07008 127.575 8.19544C127.633 8.32142 127.663 8.46819 127.663 8.63819C127.663 8.80759 127.628 8.95619 127.561 9.08645C127.492 9.21916 127.403 9.32128 127.291 9.39773H127.292C127.177 9.476 127.054 9.53593 126.921 9.57691C126.788 9.61788 126.652 9.63806 126.513 9.63806V9.76037C126.664 9.76037 126.812 9.73835 126.956 9.69371C127.1 9.64907 127.235 9.58424 127.36 9.49863C127.488 9.41118 127.592 9.29193 127.668 9.14333C127.746 8.99411 127.784 8.82471 127.784 8.63819C127.784 8.45351 127.751 8.28778 127.684 8.14346C127.617 7.99975 127.517 7.87805 127.386 7.78204C127.261 7.68909 127.136 7.61448 127.012 7.55761C126.888 7.50135 126.737 7.44508 126.557 7.38638H126.557C126.336 7.31299 126.17 7.22982 126.062 7.14298H126.063C125.958 7.05676 125.912 6.96319 125.911 6.84455C125.912 6.71246 125.963 6.60911 126.077 6.51616H126.078C126.193 6.42443 126.33 6.37856 126.498 6.37856C126.677 6.37856 126.816 6.42443 126.923 6.5131L126.924 6.51371L126.923 6.5131C127.036 6.60667 127.102 6.70329 127.128 6.80419L127.146 6.87146L127.635 6.66537L127.686 6.64397L127.669 6.59077C127.608 6.39202 127.474 6.21222 127.275 6.05139C127.07 5.88566 126.805 5.80433 126.488 5.80494C126.146 5.80433 125.86 5.90707 125.642 6.11377C125.426 6.3168 125.313 6.56508 125.314 6.84455C125.313 7.11118 125.404 7.33806 125.581 7.51113C125.755 7.68297 126.007 7.81873 126.333 7.9227H126.334C126.641 8.01748 126.862 8.11961 126.995 8.22357C127.123 8.32386 127.186 8.45779 127.187 8.64859C127.186 8.81738 127.125 8.93968 126.997 9.03814C126.864 9.1366 126.705 9.18674 126.513 9.18736C126.332 9.18674 126.172 9.12437 126.024 8.99472H126.024C125.876 8.86385 125.78 8.70608 125.732 8.51589L125.715 8.44801L125.226 8.64859L125.177 8.66816L125.189 8.71953C125.269 9.0467 125.444 9.30661 125.708 9.48884C125.967 9.66803 126.237 9.76037 126.513 9.76037V9.69921Z" fill="#667381"/>
<path fill-rule="evenodd" clip-rule="evenodd" d="M128.857 7.67987H129.637C129.832 7.67987 129.989 7.61383 130.107 7.48051C130.225 7.3472 130.284 7.20043 130.284 7.03959C130.284 6.87876 130.225 6.73199 130.107 6.59929C129.989 6.46536 129.832 6.3987 129.637 6.3987H128.857V7.67987ZM128.857 9.61723H128.391V5.948H129.626C129.933 5.948 130.199 6.05135 130.423 6.25805C130.648 6.46475 130.76 6.72526 130.76 7.03959C130.76 7.35392 130.648 7.61444 130.423 7.82114C130.199 8.02784 129.933 8.13119 129.626 8.13119H128.857V9.61723Z" fill="#667381"/>
<path fill-rule="evenodd" clip-rule="evenodd" d="M128.857 7.67988V7.74103H129.636C129.845 7.74164 130.023 7.66765 130.152 7.52149H130.152C130.278 7.379 130.345 7.21572 130.344 7.0396C130.345 6.86347 130.278 6.70019 130.152 6.55831H130.152C130.023 6.41155 129.845 6.33694 129.636 6.33755H128.796V7.74103H128.857V7.67988H128.917V6.45986H129.636C129.819 6.46108 129.955 6.51979 130.062 6.63965L130.063 6.64087L130.062 6.63965C130.172 6.7644 130.223 6.89466 130.223 7.0396C130.223 7.18453 130.172 7.31479 130.062 7.43954C129.955 7.5594 129.819 7.61811 129.636 7.61872H128.857V7.67988H128.917H128.857ZM128.857 9.61723V9.55608H128.451V6.00915H129.626C129.92 6.00977 130.168 6.10639 130.382 6.3033C130.596 6.50022 130.699 6.73994 130.699 7.0396C130.699 7.33925 130.596 7.57897 130.382 7.77589C130.168 7.9728 129.92 8.06943 129.626 8.07004H128.796V9.61723H128.857V9.55608V9.61723H128.917V8.19235H129.626C129.946 8.19296 130.23 8.08288 130.464 7.86578C130.7 7.6493 130.821 7.3686 130.82 7.0396C130.821 6.71059 130.7 6.42928 130.464 6.2128C130.23 5.99631 129.946 5.88623 129.626 5.88684H128.331V9.67838H128.917V9.61723H128.857Z" fill="#667381"/>
<path fill-rule="evenodd" clip-rule="evenodd" d="M131.997 8.83572C132.265 9.11091 132.593 9.2479 132.982 9.2479C133.369 9.2479 133.698 9.11091 133.966 8.83572C134.234 8.56053 134.369 8.2095 134.369 7.78265C134.369 7.3558 134.234 7.00477 133.966 6.72958C133.698 6.45439 133.369 6.3174 132.982 6.3174C132.593 6.3174 132.265 6.45439 131.997 6.72958C131.73 7.00477 131.595 7.3558 131.595 7.78265C131.595 8.2095 131.73 8.56053 131.997 8.83572ZM134.311 9.14332C133.954 9.51392 133.511 9.69921 132.982 9.69921C132.452 9.69921 132.009 9.51392 131.654 9.14332C131.297 8.77273 131.12 8.31897 131.12 7.78265C131.12 7.24633 131.297 6.79257 131.654 6.42198C132.009 6.05138 132.452 5.86609 132.982 5.86609C133.508 5.86609 133.95 6.052 134.308 6.42442C134.666 6.79685 134.844 7.24939 134.844 7.78265C134.844 8.31897 134.666 8.77273 134.311 9.14332Z" fill="#667381"/>
<path fill-rule="evenodd" clip-rule="evenodd" d="M131.997 8.83572L131.954 8.87853C132.232 9.16473 132.579 9.31027 132.982 9.30966C133.384 9.31027 133.731 9.16473 134.009 8.87853C134.289 8.59294 134.43 8.22235 134.429 7.78265C134.43 7.34295 134.289 6.97297 134.009 6.68677C133.731 6.40057 133.384 6.25564 132.982 6.25625C132.579 6.25564 132.232 6.40057 131.954 6.68677L131.952 6.68861L131.954 6.68677C131.675 6.97297 131.534 7.34295 131.534 7.78265C131.534 8.22235 131.675 8.59294 131.954 8.87853L132.04 8.79291C131.784 8.52934 131.656 8.19666 131.655 7.78265C131.656 7.36864 131.784 7.03596 132.04 6.77239C132.298 6.5082 132.608 6.37917 132.982 6.37856C133.355 6.37917 133.665 6.5082 133.923 6.77239H133.923C134.18 7.03657 134.308 7.36864 134.309 7.78265C134.308 8.19666 134.18 8.52873 133.923 8.79291C133.665 9.0571 133.355 9.18674 132.982 9.18735C132.608 9.18613 132.298 9.0571 132.04 8.79291L131.997 8.83572ZM134.31 9.14332L134.267 9.10052C133.921 9.4601 133.497 9.63745 132.982 9.63806C132.466 9.63745 132.042 9.4601 131.696 9.10052L131.694 9.09868L131.696 9.10052C131.351 8.74032 131.18 8.30552 131.18 7.78265C131.18 7.25978 131.351 6.82498 131.696 6.46478C132.042 6.1052 132.466 5.92785 132.982 5.92724C133.494 5.92785 133.917 6.10642 134.264 6.46723C134.612 6.82926 134.783 7.26345 134.784 7.78265C134.783 8.30552 134.612 8.74032 134.267 9.10052L134.354 9.18552C134.72 8.80514 134.905 8.33242 134.905 7.78265C134.905 7.23593 134.719 6.76444 134.351 6.38223C133.984 5.99818 133.522 5.80432 132.982 5.80493C132.438 5.80432 131.975 5.99757 131.61 6.37978C131.243 6.76077 131.058 7.23288 131.059 7.78265C131.058 8.33242 131.243 8.80514 131.61 9.18552C131.975 9.56834 132.438 9.76098 132.982 9.76037C133.525 9.76098 133.987 9.56834 134.354 9.18552L134.31 9.14332Z" fill="#667381"/>
<path fill-rule="evenodd" clip-rule="evenodd" d="M135.498 9.61723V5.948H136.064L137.825 8.80205H137.845L137.825 8.09511V5.948H138.292V9.61723H137.805L135.963 6.62436H135.943L135.963 7.33191V9.61723H135.498Z" fill="#667381"/>
<path fill-rule="evenodd" clip-rule="evenodd" d="M135.498 9.61722H135.558V6.00915H136.031L137.792 8.86381H137.908L137.886 8.09449V6.00915H138.232V9.55607H137.84L135.997 6.5632H135.881L135.903 7.33252V9.55607H135.498V9.61722H135.558H135.498V9.67838H136.023V7.33068L136.003 6.62313L135.943 6.62436V6.68551H135.963V6.62436L135.912 6.65677L137.773 9.67838H138.352V5.88684H137.765V8.09572L137.786 8.80388L137.846 8.80204V8.7415H137.826V8.80204L137.877 8.77024L136.098 5.88684H135.438V9.67838H135.498V9.61722Z" fill="#667381"/>
<path fill-rule="evenodd" clip-rule="evenodd" d="M139.556 5.66045H139.152L139.415 5.00427H139.921L139.556 5.66045ZM139.122 9.6165H139.587V5.94726H139.122V9.6165Z" fill="#667381"/>
<path fill-rule="evenodd" clip-rule="evenodd" d="M139.556 5.66118V5.60003H139.241L139.455 5.06616H139.818L139.504 5.63122L139.556 5.66118V5.60003V5.66118L139.609 5.69115L140.024 4.94385H139.375L139.062 5.72234H139.592L139.609 5.69115L139.556 5.66118ZM139.121 9.61722H139.182V6.00915H139.526V9.55607H139.121V9.61722H139.182H139.121V9.67838H139.647V5.88684H139.061V9.67838H139.121V9.61722Z" fill="#667381"/>
<path fill-rule="evenodd" clip-rule="evenodd" d="M141.313 9.61723L140.037 5.948H140.554L141.545 8.92558H141.566L142.599 5.948H143.114L141.798 9.61723H141.313Z" fill="#667381"/>
<path fill-rule="evenodd" clip-rule="evenodd" d="M141.313 9.61722L141.37 9.59704L140.123 6.00915H140.51L141.503 8.98673H141.609L142.642 6.00915H143.028L141.756 9.55607H141.313V9.61722L141.37 9.59704L141.313 9.61722V9.67838H141.841L143.201 5.88684H142.556L141.509 8.90539L141.566 8.92557V8.86442H141.545V8.92557L141.603 8.90601L140.597 5.88684H139.952L141.27 9.67838H141.313V9.61722Z" fill="#667381"/>
<path fill-rule="evenodd" clip-rule="evenodd" d="M145.756 6.3987H144.106V7.56246H145.595V8.00277H144.106V9.16652H145.756V9.61723H143.641V5.948H145.756V6.3987Z" fill="#667381"/>
<path fill-rule="evenodd" clip-rule="evenodd" d="M145.756 6.3987V6.33754H144.046V7.62361H145.534V7.94161H144.046V9.22767H145.696V9.55607H143.701V6.00915H145.696V6.3987H145.756V6.33754V6.3987H145.817V5.88684H143.58V9.67838H145.817V9.10537H144.167V8.06392H145.655V7.5013H144.167V6.45985H145.817V6.3987H145.756Z" fill="#667381"/>
<path fill-rule="evenodd" clip-rule="evenodd" d="M146.485 9.61723V5.948H146.951V9.16652H148.52V9.61723H146.485Z" fill="#667381"/>
<path fill-rule="evenodd" clip-rule="evenodd" d="M146.486 9.61722H146.546V6.00915H146.891V9.22767H148.46V9.55607H146.486V9.61722H146.546H146.486V9.67838H148.58V9.10537H147.012V5.88684H146.425V9.67838H146.486V9.61722Z" fill="#667381"/>
<path fill-rule="evenodd" clip-rule="evenodd" d="M150.322 9.61723V5.948H150.888L152.65 8.80205H152.669L152.65 8.09511V5.948H153.116V9.61723H152.63L150.787 6.62436H150.767L150.787 7.33191V9.61723H150.322Z" fill="#667381"/>
<path fill-rule="evenodd" clip-rule="evenodd" d="M150.322 9.61722H150.383V6.00915H150.855L152.617 8.86381H152.732L152.71 8.09449V6.00915H153.056V9.55607H152.664L150.821 6.5632H150.705L150.727 7.33252V9.55607H150.322V9.61722H150.383H150.322V9.67838H150.848V7.33068L150.828 6.62313L150.767 6.62436V6.68551H150.787V6.62436L150.736 6.65677L152.597 9.67838H153.177V5.88684H152.589V8.09633L152.609 8.80388L152.67 8.80204V8.7415H152.65V8.80204L152.701 8.77024L150.922 5.88684H150.262V9.67838H150.322V9.61722Z" fill="#667381"/>
<path fill-rule="evenodd" clip-rule="evenodd" d="M154.596 8.83572C154.865 9.11091 155.192 9.2479 155.581 9.2479C155.969 9.2479 156.297 9.11091 156.565 8.83572C156.834 8.56053 156.968 8.2095 156.968 7.78265C156.968 7.3558 156.834 7.00477 156.565 6.72958C156.297 6.45439 155.969 6.3174 155.581 6.3174C155.192 6.3174 154.865 6.45439 154.596 6.72958C154.329 7.00477 154.194 7.3558 154.194 7.78265C154.194 8.2095 154.329 8.56053 154.596 8.83572ZM156.91 9.14332C156.553 9.51392 156.111 9.69921 155.581 9.69921C155.051 9.69921 154.608 9.51392 154.253 9.14332C153.896 8.77273 153.719 8.31897 153.719 7.78265C153.719 7.24633 153.896 6.79257 154.253 6.42198C154.608 6.05138 155.051 5.86609 155.581 5.86609C156.108 5.86609 156.549 6.052 156.907 6.42442C157.265 6.79685 157.444 7.24939 157.444 7.78265C157.444 8.31897 157.265 8.77273 156.91 9.14332Z" fill="#667381"/>
<path fill-rule="evenodd" clip-rule="evenodd" d="M154.596 8.83572L154.553 8.87853C154.831 9.16473 155.178 9.31027 155.581 9.30966C155.983 9.31027 156.33 9.16473 156.608 8.87853C156.888 8.59294 157.029 8.22235 157.028 7.78265C157.029 7.34295 156.888 6.97297 156.608 6.68677C156.33 6.40057 155.983 6.25564 155.581 6.25625C155.178 6.25564 154.831 6.40057 154.553 6.68677C154.274 6.97297 154.133 7.34295 154.134 7.78265C154.133 8.22235 154.274 8.59294 154.553 8.87853L154.639 8.79291C154.383 8.52934 154.255 8.19666 154.254 7.78265C154.255 7.36864 154.383 7.03596 154.639 6.77239C154.898 6.5082 155.206 6.37917 155.581 6.37856C155.955 6.37917 156.264 6.5082 156.522 6.77239L156.524 6.77422L156.522 6.77239C156.779 7.03657 156.907 7.36864 156.908 7.78265C156.907 8.19666 156.779 8.52873 156.522 8.79291C156.264 9.0571 155.955 9.18674 155.581 9.18735C155.206 9.18613 154.898 9.0571 154.639 8.79291L154.596 8.83572ZM156.909 9.14332L156.866 9.10052C156.52 9.4601 156.097 9.63745 155.581 9.63806C155.065 9.63745 154.641 9.4601 154.295 9.10052L154.294 9.09868L154.295 9.10052C153.95 8.74032 153.78 8.30552 153.779 7.78265C153.78 7.25978 153.95 6.82498 154.295 6.46478C154.641 6.1052 155.065 5.92785 155.581 5.92724C156.093 5.92785 156.516 6.10642 156.864 6.46723C157.211 6.82926 157.382 7.26345 157.383 7.78265C157.382 8.30552 157.211 8.74032 156.866 9.10052L156.953 9.18552C157.319 8.80514 157.504 8.33242 157.504 7.78265C157.504 7.23593 157.318 6.76444 156.951 6.38223C156.582 5.99818 156.121 5.80432 155.581 5.80493C155.037 5.80432 154.574 5.99757 154.209 6.37978C153.842 6.76077 153.658 7.23288 153.658 7.78265C153.658 8.33242 153.842 8.80514 154.209 9.18552C154.574 9.56834 155.037 9.76098 155.581 9.76037C156.124 9.76098 156.586 9.56834 156.953 9.18552L156.909 9.14332Z" fill="#667381"/>
</g>
<defs>
<clipPath id="clip0_5951_11899">
<rect width="80" height="27" fill="white" transform="translate(0.398438)"/>
</clipPath>
<clipPath id="clip1_5951_11899">
<rect width="80" height="27" fill="white" transform="translate(96.3984)"/>
</clipPath>
</defs>
</svg>
